<?xml version="1.0" encoding="utf-8" standalone="no"?>
<!DOCTYPE svg PUBLIC "-//W3C//DTD SVG 1.1//EN"
  "http://www.w3.org/Graphics/SVG/1.1/DTD/svg11.dtd">
<svg xmlns:xlink="http://www.w3.org/1999/xlink" width="1080pt" height="360pt" viewBox="0 0 1080 360" xmlns="http://www.w3.org/2000/svg" version="1.1">
 <metadata>
  <rdf:RDF xmlns:dc="http://purl.org/dc/elements/1.1/" xmlns:cc="http://creativecommons.org/ns#" xmlns:rdf="http://www.w3.org/1999/02/22-rdf-syntax-ns#">
   <cc:Work>
    <dc:type rdf:resource="http://purl.org/dc/dcmitype/StillImage"/>
    <dc:date>2024-10-01T16:38:11.207952</dc:date>
    <dc:format>image/svg+xml</dc:format>
    <dc:creator>
     <cc:Agent>
      <dc:title>Matplotlib v3.9.2, https://matplotlib.org/</dc:title>
     </cc:Agent>
    </dc:creator>
   </cc:Work>
  </rdf:RDF>
 </metadata>
 <defs>
  <style type="text/css">*{stroke-linejoin: round; stroke-linecap: butt}</style>
 </defs>
 <g id="figure_1">
  <g id="patch_1">
   <path d="M 0 360 
L 1080 360 
L 1080 0 
L 0 0 
L 0 360 
z
" style="fill: none"/>
  </g>
  <g id="axes_1">
   <g id="patch_2">
    <path d="M 57.836 310.84 
L 1069.2 310.84 
L 1069.2 10.8 
L 57.836 10.8 
L 57.836 310.84 
z
" style="fill: none"/>
   </g>
   <g id="line2d_1">
    <path d="M 103.807091 112.287439 
L 104.206319 113.906089 
L 104.605547 45.445404 
L 105.004775 111.312818 
L 105.404002 137.054597 
L 105.80323 151.889057 
L 106.202458 116.691848 
L 107.000914 207.300185 
L 107.400142 228.439134 
L 107.79937 80.081043 
L 108.198598 118.634781 
L 108.597826 122.200658 
L 108.997053 134.597101 
L 109.396281 152.100507 
L 109.795509 82.550591 
L 110.194737 141.681398 
L 110.593965 138.984221 
L 110.993193 176.0539 
L 111.392421 152.886777 
L 111.791649 175.557137 
L 112.190876 162.857805 
L 112.590104 160.817623 
L 112.989332 218.040399 
L 113.38856 155.342982 
L 113.787788 137.019073 
L 114.187016 148.880168 
L 114.586244 237.136405 
L 114.985472 158.200544 
L 115.3847 142.391347 
L 115.783927 155.158654 
L 116.183155 109.405092 
L 116.582383 187.747129 
L 116.981611 219.112164 
L 117.380839 166.162243 
L 117.780067 224.48705 
L 118.179295 111.975096 
L 118.578523 142.82637 
L 118.977751 204.952971 
L 119.376978 141.329493 
L 119.776206 188.823961 
L 120.175434 154.53965 
L 120.574662 178.25374 
L 120.97389 112.001613 
L 121.373118 189.961827 
L 121.772346 218.509079 
L 122.171574 168.611644 
L 122.570801 209.955097 
L 122.970029 174.804895 
L 123.369257 172.40295 
L 123.768485 182.642977 
L 124.167713 140.4505 
L 124.566941 46.803546 
L 125.365397 192.124439 
L 125.764625 181.265776 
L 126.163852 201.472648 
L 126.56308 114.489997 
L 126.962308 145.385621 
L 127.361536 152.174317 
L 127.760764 100.334035 
L 128.55922 181.892188 
L 128.958448 163.944008 
L 129.357676 151.932833 
L 129.756903 116.866705 
L 130.156131 147.084298 
L 130.555359 142.873557 
L 130.954587 88.433281 
L 131.353815 122.799636 
L 131.753043 131.36602 
L 132.152271 153.409943 
L 132.551499 158.217521 
L 132.950726 105.968597 
L 133.349954 130.248389 
L 133.749182 102.349212 
L 134.14841 112.699624 
L 134.946866 147.782489 
L 135.346094 126.217296 
L 135.745322 44.171916 
L 136.14455 168.974704 
L 136.543777 202.764678 
L 136.943005 212.632895 
L 137.342233 94.017189 
L 137.741461 203.042533 
L 138.140689 167.248278 
L 138.539917 93.869535 
L 138.939145 115.584535 
L 139.338373 167.614828 
L 139.737601 95.380318 
L 140.136828 182.682576 
L 140.536056 170.309694 
L 140.935284 120.809353 
L 141.334512 122.365081 
L 141.73374 145.439415 
L 142.132968 191.029406 
L 142.532196 134.817303 
L 142.931424 106.214747 
L 143.330651 225.130337 
L 143.729879 254.968588 
L 144.528335 131.581035 
L 144.927563 231.948577 
L 145.326791 172.544392 
L 145.726019 195.129324 
L 146.125247 133.797862 
L 147.32293 153.91565 
L 147.722158 240.538803 
L 148.121386 178.51376 
L 148.520614 179.989681 
L 148.919842 122.222658 
L 149.31907 159.333221 
L 149.718298 151.636416 
L 150.117526 131.127574 
L 150.516753 135.433389 
L 150.915981 183.367482 
L 151.315209 110.494897 
L 151.714437 164.857468 
L 152.113665 176.609542 
L 152.512893 124.942587 
L 152.912121 116.621112 
L 153.311349 110.989624 
L 153.710576 71.08832 
L 154.109804 151.691157 
L 154.509032 184.246476 
L 155.307488 121.455584 
L 155.706716 201.82609 
L 156.105944 151.010093 
L 156.505172 142.074502 
L 156.9044 158.378648 
L 157.303627 219.164358 
L 157.702855 112.045921 
L 158.102083 166.891838 
L 158.501311 158.552257 
L 158.900539 122.951915 
L 159.299767 193.341605 
L 159.698995 153.503291 
L 160.098223 148.284769 
L 160.497451 132.346838 
L 161.295906 224.948944 
L 161.695134 128.05399 
L 162.094362 197.147632 
L 162.49359 116.679561 
L 162.892818 156.321191 
L 163.292046 181.892432 
L 163.691274 143.321372 
L 164.090501 136.753792 
L 164.489729 158.918696 
L 164.888957 227.52242 
L 165.288185 68.442722 
L 165.687413 129.182557 
L 166.086641 94.626429 
L 166.485869 78.803562 
L 166.885097 151.667744 
L 167.284325 174.920102 
L 167.683552 30.462961 
L 168.08278 219.034377 
L 168.881236 126.127539 
L 169.280464 152.703364 
L 169.679692 135.404911 
L 170.07892 165.343762 
L 170.478148 109.638039 
L 170.877376 70.075498 
L 171.276603 116.55475 
L 171.675831 179.144562 
L 172.075059 184.943069 
L 172.474287 149.538984 
L 172.873515 160.403812 
L 173.272743 143.780734 
L 173.671971 110.908648 
L 174.071199 129.366472 
L 174.470426 219.840061 
L 174.869654 112.73455 
L 175.268882 147.811554 
L 175.66811 237.607656 
L 176.067338 157.186163 
L 176.466566 135.104955 
L 176.865794 146.740027 
L 177.66425 160.508149 
L 178.063477 190.01977 
L 178.462705 164.057294 
L 178.861933 113.854517 
L 179.261161 147.256432 
L 179.660389 102.82847 
L 180.059617 154.145033 
L 180.458845 251.454075 
L 180.858073 162.812956 
L 181.257301 198.825628 
L 181.656528 125.73186 
L 182.055756 182.039349 
L 182.854212 98.337893 
L 183.25344 126.654693 
L 183.652668 129.657815 
L 184.051896 168.417446 
L 184.451124 150.61701 
L 184.850351 182.185494 
L 185.249579 179.308206 
L 185.648807 208.19611 
L 186.048035 180.239872 
L 186.447263 127.813974 
L 186.846491 205.971796 
L 187.245719 165.113177 
L 187.644947 75.559432 
L 188.044175 191.119068 
L 188.443402 174.842722 
L 188.84263 137.760625 
L 189.241858 169.917834 
L 190.040314 150.771081 
L 190.439542 174.891517 
L 190.83877 154.782472 
L 191.237998 41.187914 
L 191.637226 88.553316 
L 192.036453 161.555184 
L 192.435681 145.827675 
L 192.834909 136.16742 
L 193.234137 189.998667 
L 193.633365 109.331549 
L 194.032593 120.925672 
L 194.431821 118.709879 
L 194.831049 187.309792 
L 195.230276 186.461206 
L 195.629504 193.412994 
L 196.028732 143.102091 
L 196.42796 187.091767 
L 196.827188 137.907303 
L 197.226416 205.014586 
L 197.625644 171.755101 
L 198.024872 158.445675 
L 198.4241 176.941439 
L 198.823327 175.374835 
L 199.222555 110.468323 
L 199.621783 73.309811 
L 200.021011 119.464468 
L 200.420239 191.947043 
L 200.819467 169.756494 
L 201.218695 136.842634 
L 201.617923 132.323278 
L 202.017151 169.61692 
L 202.416378 180.227861 
L 202.815606 92.048339 
L 203.214834 180.038984 
L 203.614062 203.370938 
L 204.01329 95.828004 
L 204.412518 146.473266 
L 204.811746 117.932392 
L 205.210974 176.311813 
L 205.610201 71.396685 
L 206.009429 248.165572 
L 206.408657 130.68506 
L 206.807885 118.38881 
L 207.207113 201.803146 
L 207.606341 126.04997 
L 208.005569 108.298741 
L 208.404797 158.790115 
L 208.804025 159.25745 
L 209.203252 205.798314 
L 209.60248 111.088988 
L 210.001708 207.023041 
L 210.400936 95.916434 
L 211.59862 174.643642 
L 211.997848 167.182063 
L 212.397076 142.766388 
L 212.796303 187.584634 
L 213.195531 93.608405 
L 213.594759 171.858018 
L 213.993987 161.639769 
L 214.393215 77.35806 
L 214.792443 198.630979 
L 215.191671 206.056826 
L 215.590899 153.809358 
L 215.990126 151.081129 
L 216.788582 172.759566 
L 217.18781 144.063132 
L 217.587038 209.978914 
L 217.986266 162.516514 
L 218.385494 157.466016 
L 218.784722 125.755925 
L 219.18395 138.688592 
L 219.583177 170.744149 
L 219.982405 183.658145 
L 220.381633 47.451579 
L 220.780861 155.042037 
L 221.180089 137.316307 
L 221.579317 226.999083 
L 221.978545 99.101355 
L 222.377773 203.52777 
L 222.777001 127.758473 
L 223.176228 223.717588 
L 223.575456 93.959645 
L 223.974684 145.102468 
L 224.373912 155.528704 
L 224.77314 162.030705 
L 225.172368 118.863695 
L 225.571596 209.856333 
L 225.970824 147.354886 
L 226.370051 169.365865 
L 226.769279 140.828976 
L 227.168507 148.937833 
L 227.567735 121.215513 
L 227.966963 194.722288 
L 228.366191 147.497426 
L 228.765419 198.749564 
L 229.164647 137.07289 
L 229.563875 118.806704 
L 229.963102 162.933356 
L 230.36233 159.057394 
L 230.761558 108.71833 
L 231.160786 93.903929 
L 231.560014 178.463405 
L 231.959242 48.667545 
L 232.35847 154.729088 
L 232.757698 111.552344 
L 233.156926 210.603547 
L 233.556153 174.161463 
L 234.354609 150.6937 
L 234.753837 174.897309 
L 235.153065 100.123544 
L 235.552293 137.92601 
L 235.951521 151.847636 
L 236.350749 158.971001 
L 236.749976 142.839731 
L 237.149204 153.503291 
L 237.548432 182.758863 
L 237.94766 237.852093 
L 238.346888 216.733517 
L 238.746116 137.553516 
L 239.145344 146.846008 
L 239.544572 94.847746 
L 239.9438 218.697811 
L 240.742255 162.42383 
L 241.141483 159.837496 
L 241.540711 173.358567 
L 241.939939 143.737368 
L 242.339167 203.933869 
L 242.738395 95.634784 
L 243.137623 237.957931 
L 243.536851 125.612771 
L 243.936078 111.656731 
L 244.335306 218.258969 
L 244.734534 196.473908 
L 245.133762 166.641432 
L 245.932218 133.005948 
L 246.331446 178.466651 
L 247.129901 162.299519 
L 247.529129 227.174838 
L 247.928357 116.173035 
L 248.327585 111.580695 
L 248.726813 207.399122 
L 249.525269 160.517043 
L 249.924497 151.872672 
L 250.323725 169.33369 
L 250.722952 110.977337 
L 251.12218 161.78057 
L 251.521408 121.835873 
L 251.920636 166.351295 
L 252.319864 183.458803 
L 252.719092 133.976964 
L 253.11832 156.771961 
L 253.517548 132.363506 
L 253.916776 155.687957 
L 254.316003 150.724096 
L 254.715231 184.196404 
L 255.114459 171.529269 
L 255.513687 198.84565 
L 255.912915 180.7169 
L 256.312143 125.320717 
L 256.711371 154.219103 
L 257.110599 146.168365 
L 257.509826 220.892071 
L 257.909054 198.355228 
L 258.70751 101.365119 
L 259.106738 157.315763 
L 259.505966 156.204733 
L 259.905194 116.53857 
L 260.304422 265.451646 
L 260.70365 238.363006 
L 261.102877 187.202819 
L 261.502105 110.149976 
L 262.300561 193.966259 
L 262.699789 204.153103 
L 263.099017 189.151303 
L 263.498245 112.309299 
L 263.897473 108.286573 
L 264.296701 128.810136 
L 264.695928 132.314858 
L 265.095156 166.502859 
L 265.494384 183.027005 
L 265.893612 185.307078 
L 266.29284 144.705161 
L 266.692068 175.362302 
L 267.091296 134.381109 
L 267.490524 145.367578 
L 267.889751 107.655857 
L 268.288979 179.680334 
L 268.688207 184.628751 
L 269.087435 118.022438 
L 269.486663 186.151599 
L 269.885891 151.099535 
L 270.285119 150.350478 
L 270.684347 96.42119 
L 271.083575 127.326755 
L 271.482802 181.617686 
L 271.88203 131.240385 
L 272.281258 106.867609 
L 273.079714 227.0264 
L 273.478942 145.072447 
L 273.87817 130.152373 
L 274.277398 159.948853 
L 274.676626 214.93257 
L 275.075853 142.388959 
L 275.475081 209.3526 
L 275.874309 193.424107 
L 276.273537 136.929321 
L 276.672765 103.844049 
L 277.071993 140.535085 
L 277.471221 155.770831 
L 277.870449 190.663016 
L 278.269676 100.57565 
L 278.668904 161.159022 
L 279.068132 114.61335 
L 279.46736 176.147115 
L 279.866588 44.70066 
L 280.265816 182.376066 
L 280.665044 108.009414 
L 281.064272 115.727881 
L 281.4635 170.838026 
L 281.862727 179.366479 
L 282.261955 204.577583 
L 282.661183 163.876698 
L 283.060411 160.275091 
L 283.459639 84.541857 
L 283.858867 128.074445 
L 284.258095 121.814695 
L 284.657323 129.806143 
L 285.056551 148.588762 
L 285.455778 101.667566 
L 285.855006 196.990261 
L 286.254234 98.872174 
L 286.653462 121.026164 
L 287.05269 65.105867 
L 287.451918 108.846297 
L 287.851146 122.150213 
L 288.250374 212.748335 
L 288.649601 134.393829 
L 289.048829 221.325634 
L 289.448057 156.81002 
L 289.847285 149.977593 
L 290.246513 171.464839 
L 290.645741 161.357583 
L 291.044969 121.159434 
L 291.444197 185.101952 
L 291.843425 221.645166 
L 292.64188 122.625597 
L 293.440336 163.949664 
L 293.839564 150.064702 
L 294.238792 181.469407 
L 294.63802 107.224821 
L 295.037248 238.974171 
L 295.436476 151.358916 
L 295.835703 205.247806 
L 296.234931 186.067269 
L 296.634159 220.186142 
L 297.033387 205.585194 
L 297.432615 185.0115 
L 297.831843 208.587656 
L 298.231071 175.887201 
L 298.630299 170.725219 
L 299.029526 52.053326 
L 299.428754 53.093142 
L 299.827982 176.924304 
L 300.22721 99.338467 
L 300.626438 175.930985 
L 301.025666 183.524318 
L 301.424894 57.934608 
L 301.824122 129.77915 
L 302.22335 146.780258 
L 302.622577 156.016338 
L 303.021805 135.241761 
L 303.421033 176.147072 
L 303.820261 138.419182 
L 304.219489 151.923434 
L 304.618717 128.661097 
L 305.017945 88.914629 
L 305.417173 224.531438 
L 305.816401 233.257211 
L 306.215628 78.874951 
L 306.614856 101.558468 
L 307.014084 190.530848 
L 307.413312 187.715944 
L 307.81254 159.594212 
L 308.211768 153.565311 
L 308.610996 153.402861 
L 309.010224 137.987134 
L 309.409451 212.402799 
L 309.808679 210.005822 
L 310.207907 109.88244 
L 310.607135 199.081599 
L 311.006363 163.983258 
L 311.405591 146.303264 
L 311.804819 67.148178 
L 312.204047 110.037499 
L 312.603275 87.96073 
L 313.002502 94.00338 
L 313.40173 110.019977 
L 313.800958 78.582119 
L 314.200186 182.596785 
L 314.599414 149.796772 
L 314.998642 102.180512 
L 315.39787 181.806278 
L 316.196326 107.641128 
L 316.595553 157.834067 
L 316.994781 116.185538 
L 317.394009 251.740523 
L 317.793237 151.194747 
L 318.192465 253.567933 
L 318.591693 75.237925 
L 318.990921 115.417631 
L 319.390149 129.767333 
L 319.789376 199.134119 
L 320.188604 127.657084 
L 320.587832 95.804295 
L 320.98706 196.811518 
L 321.386288 191.499878 
L 321.785516 181.23507 
L 322.184744 103.549146 
L 322.583972 237.9803 
L 322.9832 146.544216 
L 323.382427 106.919878 
L 323.781655 190.763117 
L 324.180883 124.116558 
L 324.580111 215.946389 
L 324.979339 159.404108 
L 325.378567 125.549294 
L 325.777795 129.730545 
L 326.177023 163.342869 
L 326.576251 167.69209 
L 326.975478 209.272953 
L 327.374706 192.364413 
L 327.773934 148.102479 
L 328.173162 82.822339 
L 328.57239 163.157074 
L 328.971618 103.380507 
L 329.370846 184.181119 
L 329.770074 105.430014 
L 330.169301 161.158431 
L 330.967757 173.084591 
L 331.366985 132.381559 
L 331.766213 129.559437 
L 332.165441 107.563283 
L 332.564669 128.440524 
L 332.963897 130.24271 
L 333.762352 179.599072 
L 334.16158 105.610605 
L 334.560808 193.83403 
L 335.758492 141.686817 
L 336.15772 139.099784 
L 336.556948 78.998032 
L 336.956176 171.350168 
L 337.355403 176.021688 
L 337.754631 174.276767 
L 338.153859 96.304763 
L 338.952315 146.069066 
L 339.351543 148.395487 
L 339.750771 149.284507 
L 340.149999 213.197439 
L 340.549226 153.503291 
L 340.948454 189.704037 
L 341.347682 236.443531 
L 341.74691 148.19899 
L 342.146138 173.765281 
L 342.545366 151.350952 
L 342.944594 149.42578 
L 343.343822 135.183038 
L 343.74305 127.810647 
L 344.142277 141.467571 
L 344.541505 188.416692 
L 344.940733 135.200817 
L 345.339961 107.291765 
L 345.739189 90.986534 
L 346.138417 162.154718 
L 346.537645 210.018615 
L 346.936873 195.91359 
L 347.336101 189.496271 
L 347.735328 223.906859 
L 348.134556 109.228457 
L 348.533784 103.973205 
L 348.933012 207.91321 
L 349.33224 193.605004 
L 349.731468 192.702275 
L 350.130696 160.38058 
L 350.529924 186.358941 
L 350.929151 92.540086 
L 351.727607 185.741296 
L 352.126835 143.987236 
L 352.526063 200.005365 
L 352.925291 160.587206 
L 353.324519 189.917533 
L 353.723747 190.030944 
L 354.122975 235.864396 
L 354.522202 29.501557 
L 354.92143 211.711535 
L 355.320658 212.40364 
L 355.719886 177.472614 
L 356.119114 160.196713 
L 356.518342 202.346386 
L 356.91757 263.424273 
L 357.716026 160.421762 
L 358.115253 156.479498 
L 358.514481 81.14748 
L 358.913709 192.55573 
L 359.312937 125.632029 
L 359.712165 98.68862 
L 360.111393 210.279534 
L 360.510621 170.755578 
L 360.909849 105.387396 
L 361.309076 152.447559 
L 361.708304 150.69361 
L 362.107532 128.159263 
L 362.50676 67.81191 
L 362.905988 217.520078 
L 363.305216 201.608155 
L 363.704444 209.717748 
L 364.103672 182.582045 
L 364.5029 128.76853 
L 364.902127 93.369066 
L 365.301355 115.362065 
L 365.700583 168.794168 
L 366.099811 202.628309 
L 366.499039 98.774728 
L 366.898267 191.112623 
L 367.297495 113.61045 
L 367.696723 115.899586 
L 368.09595 206.375708 
L 368.495178 115.819913 
L 368.894406 153.544542 
L 369.293634 180.354431 
L 369.692862 121.007166 
L 370.09209 149.136178 
L 370.491318 110.121035 
L 371.289774 160.4987 
L 371.689001 75.462283 
L 372.088229 127.187095 
L 372.487457 196.486432 
L 373.685141 93.087365 
L 374.084369 204.964202 
L 374.483597 137.649106 
L 374.882825 148.829135 
L 375.282052 141.048639 
L 375.68128 111.56797 
L 376.080508 149.191494 
L 376.479736 121.186131 
L 376.878964 153.293525 
L 377.278192 130.161062 
L 377.67742 154.854777 
L 378.076648 115.94212 
L 378.475875 128.783002 
L 378.875103 153.503291 
L 379.274331 122.75356 
L 379.673559 76.834831 
L 380.472015 150.402463 
L 380.871243 148.239909 
L 381.270471 176.273903 
L 381.669699 111.879717 
L 382.068926 161.508694 
L 382.468154 103.855686 
L 382.867382 187.904367 
L 383.665838 119.576295 
L 384.065066 174.562556 
L 384.464294 165.831629 
L 384.863522 239.219096 
L 385.26275 134.659674 
L 385.661977 186.225157 
L 386.061205 193.130995 
L 386.460433 234.911409 
L 386.859661 81.882199 
L 387.258889 221.584815 
L 387.658117 97.255007 
L 388.057345 99.246844 
L 388.456573 163.996024 
L 388.8558 113.019727 
L 389.255028 133.090463 
L 389.654256 84.794632 
L 390.452712 193.904425 
L 390.85194 131.968396 
L 391.251168 98.908641 
L 391.650396 147.721276 
L 392.049624 166.632695 
L 392.448851 132.305491 
L 392.848079 88.242129 
L 393.247307 134.287018 
L 393.646535 142.694296 
L 394.045763 126.149941 
L 394.444991 181.099619 
L 394.844219 121.452273 
L 395.243447 130.178468 
L 395.642675 148.035063 
L 396.041902 155.885672 
L 396.44113 150.309779 
L 396.840358 52.219968 
L 397.239586 227.810268 
L 397.638814 183.705261 
L 398.038042 181.029052 
L 398.43727 111.648113 
L 398.836498 193.752285 
L 399.235725 119.686844 
L 399.634953 149.341617 
L 400.034181 188.406491 
L 400.433409 119.150398 
L 400.832637 103.103054 
L 401.231865 198.192019 
L 401.631093 94.662644 
L 402.030321 159.056539 
L 402.429549 179.850728 
L 402.828776 141.348946 
L 403.228004 133.607156 
L 403.627232 198.690929 
L 404.02646 171.9126 
L 404.425688 154.801244 
L 404.824916 171.768985 
L 405.224144 201.825716 
L 405.623372 126.292317 
L 406.0226 165.974242 
L 406.421827 158.688 
L 406.821055 100.24479 
L 407.220283 168.785142 
L 407.619511 141.647379 
L 408.018739 188.620795 
L 408.817195 162.727556 
L 409.216423 192.869115 
L 409.61565 165.160264 
L 410.014878 194.652669 
L 410.414106 168.406245 
L 410.813334 218.977077 
L 411.212562 151.684046 
L 411.61179 220.222077 
L 412.011018 115.360618 
L 412.410246 163.360225 
L 412.809474 157.348632 
L 413.208701 154.402144 
L 413.607929 189.952215 
L 414.406385 153.503291 
L 414.805613 138.038092 
L 415.204841 161.321624 
L 415.604069 41.654138 
L 416.003297 186.623866 
L 416.402525 130.838866 
L 416.801752 144.903693 
L 417.20098 94.076144 
L 417.600208 104.718541 
L 417.999436 172.851793 
L 418.398664 146.87665 
L 418.797892 96.487811 
L 419.19712 198.588904 
L 419.596348 57.217944 
L 419.995575 197.782846 
L 420.394803 215.65513 
L 420.794031 215.626463 
L 421.193259 209.388952 
L 421.991715 126.285003 
L 422.390943 179.39443 
L 422.790171 191.395046 
L 423.189399 180.461248 
L 423.588626 126.018331 
L 423.987854 211.337964 
L 424.387082 143.216067 
L 424.78631 95.83805 
L 425.185538 145.5297 
L 425.584766 129.223594 
L 426.383222 196.579606 
L 426.78245 164.057482 
L 427.580905 199.865847 
L 427.980133 87.616351 
L 428.379361 110.769489 
L 428.778589 156.099614 
L 429.177817 139.213051 
L 429.577045 153.503291 
L 429.976273 65.329256 
L 430.3755 191.734825 
L 430.774728 138.360513 
L 431.173956 160.094613 
L 431.573184 135.96609 
L 431.972412 189.417255 
L 432.37164 134.994534 
L 432.770868 176.604505 
L 433.170096 164.922239 
L 433.569324 191.152609 
L 433.968551 164.796766 
L 434.367779 165.691719 
L 434.767007 201.378199 
L 435.166235 118.910919 
L 435.565463 187.768727 
L 435.964691 91.05258 
L 436.363919 153.503291 
L 436.763147 101.1575 
L 437.162375 182.471126 
L 437.561602 172.6336 
L 437.96083 139.151166 
L 438.360058 236.210548 
L 438.759286 116.551012 
L 439.158514 125.625342 
L 439.557742 173.190828 
L 439.95697 240.472505 
L 440.356198 143.04459 
L 440.755425 221.45107 
L 441.553881 169.274878 
L 441.953109 93.945538 
L 442.352337 120.684068 
L 442.751565 188.02018 
L 443.550021 133.283669 
L 443.949249 150.548826 
L 444.348476 180.278019 
L 444.747704 121.525716 
L 445.146932 81.867815 
L 445.54616 174.312288 
L 445.945388 167.710366 
L 446.344616 139.553931 
L 446.743844 151.527231 
L 447.143072 136.985353 
L 447.5423 153.691675 
L 447.941527 233.462151 
L 448.340755 215.090436 
L 448.739983 123.718967 
L 449.139211 98.485131 
L 449.538439 134.455073 
L 449.937667 135.268077 
L 450.336895 129.004583 
L 450.736123 171.809369 
L 451.13535 93.14618 
L 451.534578 195.747663 
L 451.933806 217.313465 
L 452.333034 103.514675 
L 452.732262 99.012745 
L 453.13149 118.165274 
L 453.530718 115.474162 
L 453.929946 213.308203 
L 454.329174 149.581787 
L 454.728401 186.86221 
L 455.127629 184.304275 
L 455.526857 143.173229 
L 455.926085 121.854929 
L 456.325313 156.339504 
L 456.724541 224.010815 
L 457.123769 113.896484 
L 457.522997 107.883135 
L 457.922225 124.815268 
L 458.321452 118.75022 
L 459.119908 192.527378 
L 459.519136 152.209685 
L 459.918364 176.841654 
L 460.317592 135.55755 
L 461.116048 119.247241 
L 461.515275 155.726944 
L 461.914503 35.268865 
L 462.313731 268.663561 
L 462.712959 119.367528 
L 463.112187 59.125031 
L 463.511415 92.973449 
L 463.910643 203.664994 
L 464.309871 204.903861 
L 465.108326 130.124154 
L 465.906782 207.924944 
L 466.30601 254.948136 
L 466.705238 155.966478 
L 467.104466 141.660605 
L 467.503694 100.334387 
L 467.902922 208.670844 
L 468.30215 168.811478 
L 468.701377 194.429119 
L 469.100605 175.469206 
L 469.499833 204.094809 
L 469.899061 173.063654 
L 470.298289 153.503291 
L 470.697517 116.33995 
L 471.096745 141.107298 
L 471.495973 118.592142 
L 471.8952 113.418224 
L 472.294428 140.798795 
L 472.693656 138.61696 
L 473.092884 127.072914 
L 473.492112 190.330364 
L 473.89134 171.812715 
L 474.290568 141.331166 
L 474.689796 164.150817 
L 475.089024 204.904321 
L 475.488251 171.013167 
L 475.887479 185.73433 
L 476.286707 100.870442 
L 476.685935 158.714005 
L 477.085163 80.564718 
L 477.484391 166.955384 
L 477.883619 137.432653 
L 478.282847 200.961368 
L 478.682075 157.0066 
L 479.081302 133.39386 
L 479.48053 193.152956 
L 479.879758 185.039618 
L 480.278986 144.957647 
L 480.678214 81.991635 
L 481.077442 136.431496 
L 481.47667 213.417517 
L 481.875898 234.498312 
L 482.275125 141.706447 
L 482.674353 223.132392 
L 483.073581 100.283648 
L 483.872037 201.235988 
L 484.271265 166.486807 
L 485.069721 204.900633 
L 485.468949 198.224292 
L 485.868176 187.055243 
L 486.267404 118.674504 
L 486.666632 113.785691 
L 487.06586 223.831527 
L 487.465088 132.104921 
L 487.864316 105.468825 
L 488.263544 172.614112 
L 488.662772 69.960734 
L 489.062 125.628065 
L 489.461227 102.833192 
L 489.860455 100.129469 
L 490.259683 169.0568 
L 490.658911 198.934903 
L 491.058139 143.368858 
L 491.457367 131.604256 
L 491.856595 240.079889 
L 492.255823 171.461813 
L 492.65505 193.097196 
L 493.054278 52.308815 
L 493.453506 153.503291 
L 493.852734 149.897712 
L 494.251962 137.714009 
L 494.65119 95.35262 
L 495.050418 164.231774 
L 495.449646 190.564751 
L 495.848874 163.745571 
L 496.248101 184.65521 
L 496.647329 183.991368 
L 497.046557 110.294848 
L 497.445785 206.253967 
L 498.244241 42.020571 
L 498.643469 200.049961 
L 499.042697 148.760957 
L 499.441925 75.249185 
L 499.841152 213.753874 
L 500.24038 130.572718 
L 500.639608 218.623707 
L 501.438064 99.941085 
L 501.837292 150.882065 
L 502.23652 116.800558 
L 502.635748 202.36682 
L 503.034975 179.457613 
L 503.434203 126.100462 
L 503.833431 170.138158 
L 504.232659 152.511737 
L 504.631887 126.424155 
L 505.031115 179.614887 
L 505.430343 204.646247 
L 505.829571 185.464661 
L 506.228799 216.804282 
L 506.628026 175.42498 
L 507.027254 110.810487 
L 507.426482 182.946411 
L 507.82571 217.421572 
L 508.224938 137.765174 
L 508.624166 110.722322 
L 509.023394 221.889345 
L 509.422622 210.707331 
L 509.82185 135.214758 
L 510.221077 204.045441 
L 510.620305 103.785557 
L 511.019533 193.598771 
L 511.418761 179.124207 
L 511.817989 221.746961 
L 512.217217 213.763821 
L 512.616445 169.617374 
L 513.015673 163.133496 
L 513.4149 297.201818 
L 513.814128 195.960646 
L 514.213356 128.984572 
L 514.612584 135.266673 
L 515.011812 106.663441 
L 515.41104 213.148994 
L 515.810268 183.803433 
L 516.209496 206.164104 
L 517.007951 144.762516 
L 517.407179 197.907823 
L 517.806407 210.524524 
L 518.205635 97.37389 
L 518.604863 127.05621 
L 519.004091 193.069908 
L 519.403319 162.370633 
L 519.802547 144.628028 
L 520.201775 182.707035 
L 520.601002 104.159538 
L 521.00023 160.595631 
L 521.399458 164.458092 
L 521.798686 252.78933 
L 522.197914 201.21555 
L 522.597142 70.219986 
L 523.395598 230.845056 
L 523.794825 105.582168 
L 524.194053 124.700839 
L 524.593281 200.191705 
L 525.391737 70.255483 
L 525.790965 85.878814 
L 526.190193 168.026814 
L 526.589421 207.231388 
L 527.387876 147.636875 
L 527.787104 251.486226 
L 528.58556 106.386196 
L 528.984788 135.851994 
L 529.384016 287.247533 
L 529.783244 124.86709 
L 530.182472 153.503291 
L 530.5817 135.444401 
L 530.980927 159.827723 
L 531.380155 134.28327 
L 531.779383 58.49126 
L 532.178611 153.899289 
L 532.577839 130.348092 
L 532.977067 142.688999 
L 533.376295 117.664497 
L 533.775523 167.438945 
L 534.17475 135.175363 
L 534.573978 197.111312 
L 534.973206 191.911144 
L 535.771662 104.332144 
L 536.17089 190.705196 
L 536.570118 192.546775 
L 536.969346 203.887812 
L 537.368574 164.853138 
L 537.767801 209.110806 
L 538.167029 135.958119 
L 538.566257 155.753655 
L 538.965485 119.96713 
L 539.364713 109.056203 
L 539.763941 137.945119 
L 540.163169 137.78484 
L 540.562397 116.680947 
L 540.961625 194.578644 
L 541.360852 180.337577 
L 541.76008 187.562056 
L 542.159308 162.699459 
L 542.558536 112.309051 
L 542.957764 170.121575 
L 543.356992 142.309234 
L 543.75622 147.594885 
L 544.155448 112.361134 
L 544.554675 167.380159 
L 544.953903 152.575006 
L 545.353131 100.242991 
L 545.752359 124.537293 
L 546.151587 172.361869 
L 546.550815 64.487414 
L 546.950043 142.775 
L 547.349271 134.583706 
L 547.748499 121.597615 
L 548.147726 186.001661 
L 548.546954 164.161541 
L 548.946182 240.190963 
L 549.34541 177.854878 
L 549.744638 153.952232 
L 550.143866 175.296898 
L 550.543094 53.565722 
L 551.34155 240.110712 
L 551.740777 158.980787 
L 552.140005 179.971291 
L 552.539233 152.627156 
L 552.938461 135.464943 
L 553.337689 155.075454 
L 553.736917 186.637985 
L 554.136145 107.858646 
L 554.535373 151.787209 
L 554.9346 112.945781 
L 555.333828 128.576644 
L 555.733056 154.921465 
L 556.132284 95.682403 
L 556.531512 117.117843 
L 556.93074 170.450213 
L 557.329968 143.995295 
L 557.729196 177.691615 
L 558.128424 147.796317 
L 558.527651 131.815547 
L 558.926879 143.964254 
L 559.326107 68.46395 
L 559.725335 153.503291 
L 560.124563 154.205108 
L 560.523791 98.521712 
L 560.923019 155.175376 
L 561.322247 95.884248 
L 562.120702 207.745727 
L 562.51993 117.70621 
L 562.919158 174.914045 
L 563.318386 138.708068 
L 563.717614 91.558675 
L 564.116842 220.318852 
L 564.51607 152.854008 
L 564.915298 186.465698 
L 565.314525 200.502677 
L 565.713753 92.516014 
L 566.112981 179.075112 
L 566.512209 143.325142 
L 566.911437 135.686585 
L 567.310665 118.391898 
L 567.709893 185.740574 
L 568.109121 81.802235 
L 568.508349 66.626866 
L 568.907576 168.897571 
L 569.306804 148.55619 
L 569.706032 164.612357 
L 570.10526 201.509301 
L 570.504488 142.701336 
L 570.903716 194.406835 
L 571.302944 124.167964 
L 571.702172 149.89317 
L 572.1014 153.503291 
L 572.500627 100.972614 
L 572.899855 113.119816 
L 573.299083 110.033923 
L 573.698311 226.228817 
L 574.097539 172.853407 
L 574.496767 161.108335 
L 574.895995 189.971849 
L 575.295223 175.256079 
L 576.093678 124.897185 
L 576.892134 121.746872 
L 577.291362 123.100629 
L 577.69059 127.266701 
L 578.089818 215.272899 
L 578.888274 125.426594 
L 579.287501 100.351737 
L 579.686729 109.791155 
L 580.085957 123.980579 
L 580.485185 147.380443 
L 580.884413 223.079609 
L 581.283641 143.74451 
L 581.682869 143.503291 
L 582.082097 276.06325 
L 582.481325 134.381079 
L 582.880552 111.157893 
L 583.27978 200.55635 
L 583.679008 101.124172 
L 584.078236 144.419003 
L 584.477464 161.860098 
L 584.876692 166.474313 
L 585.27592 206.000176 
L 585.675148 172.66195 
L 586.074375 168.118533 
L 586.473603 147.909684 
L 586.872831 91.920081 
L 587.272059 120.96936 
L 587.671287 178.831055 
L 588.070515 189.253687 
L 588.469743 185.578133 
L 588.868971 141.854944 
L 589.268199 180.485537 
L 589.667426 87.19111 
L 590.066654 275.161983 
L 590.465882 139.199653 
L 590.86511 47.862758 
L 591.264338 187.198675 
L 591.663566 207.878768 
L 592.062794 153.329873 
L 592.462022 137.275916 
L 592.86125 139.101628 
L 593.260477 117.211049 
L 593.659705 163.533963 
L 594.058933 168.675134 
L 594.458161 161.664373 
L 594.857389 160.031492 
L 595.256617 162.02633 
L 595.655845 182.495044 
L 596.055073 112.711182 
L 596.4543 195.728862 
L 596.853528 105.708454 
L 597.252756 118.234276 
L 597.651984 186.483497 
L 598.051212 203.939862 
L 598.45044 139.314314 
L 598.849668 267.485203 
L 599.648124 159.15052 
L 600.047351 147.642951 
L 600.446579 105.068547 
L 600.845807 178.865587 
L 601.245035 156.449741 
L 601.644263 155.202758 
L 602.043491 141.99212 
L 602.442719 183.59371 
L 602.841947 150.26569 
L 603.241175 147.797726 
L 603.640402 120.170024 
L 604.03963 208.259995 
L 604.438858 85.700057 
L 604.838086 153.339566 
L 605.237314 142.761289 
L 605.636542 118.906133 
L 606.03577 118.948338 
L 606.434998 197.244407 
L 606.834225 180.923853 
L 607.233453 183.37879 
L 607.632681 64.979426 
L 608.031909 188.219978 
L 608.431137 202.883163 
L 608.830365 147.869044 
L 609.229593 218.890715 
L 609.628821 190.939295 
L 610.028049 225.902829 
L 610.427276 106.681039 
L 610.826504 194.347698 
L 611.225732 127.58717 
L 611.62496 121.600179 
L 612.024188 148.2819 
L 612.423416 122.866134 
L 612.822644 163.16454 
L 613.221872 134.391371 
L 613.6211 164.199442 
L 614.419555 106.974639 
L 614.818783 110.695773 
L 615.218011 156.916271 
L 615.617239 148.634522 
L 616.016467 115.037945 
L 616.415695 191.076189 
L 617.21415 101.276487 
L 617.613378 174.529106 
L 618.012606 159.682682 
L 618.411834 151.607019 
L 618.811062 132.573878 
L 619.21029 127.006462 
L 619.609518 148.10462 
L 620.008746 154.866007 
L 620.407974 183.187682 
L 620.807201 183.752823 
L 621.605657 172.427542 
L 622.004885 238.296931 
L 622.803341 132.916778 
L 623.202569 173.412888 
L 623.601797 102.841597 
L 624.400252 153.503291 
L 624.79948 207.524791 
L 625.198708 203.802728 
L 625.597936 134.297975 
L 625.997164 156.100258 
L 626.396392 155.301194 
L 626.79562 96.086857 
L 627.194848 157.906523 
L 627.594075 119.417413 
L 627.993303 155.191912 
L 628.392531 144.390916 
L 628.791759 213.901809 
L 629.190987 123.109078 
L 629.989443 152.600875 
L 630.388671 134.732472 
L 630.787899 146.761923 
L 631.187126 134.786612 
L 631.586354 137.502834 
L 631.985582 182.005807 
L 632.38481 112.516411 
L 632.784038 133.430686 
L 633.183266 199.899089 
L 633.582494 228.552484 
L 633.981722 178.784908 
L 634.38095 187.551507 
L 634.780177 186.883955 
L 635.179405 114.191948 
L 635.578633 187.856429 
L 635.977861 179.962164 
L 636.377089 94.0372 
L 636.776317 181.611792 
L 637.175545 151.449407 
L 637.574773 185.086648 
L 637.974 205.787272 
L 638.373228 118.861505 
L 638.772456 64.125814 
L 639.171684 192.781668 
L 639.570912 150.773576 
L 639.97014 150.462184 
L 640.369368 79.97746 
L 640.768596 80.065984 
L 641.167824 233.279415 
L 641.567051 108.899683 
L 641.966279 94.141178 
L 642.365507 153.503291 
L 642.764735 158.871508 
L 643.163963 214.833202 
L 643.563191 164.689319 
L 643.962419 167.078386 
L 644.361647 123.60634 
L 644.760875 164.721111 
L 645.160102 117.026525 
L 645.55933 225.444978 
L 645.958558 197.290597 
L 646.357786 158.434005 
L 646.757014 191.778538 
L 647.156242 211.647499 
L 647.55547 155.356472 
L 647.954698 160.421442 
L 648.353925 192.587996 
L 648.753153 132.005884 
L 649.152381 123.014748 
L 649.551609 194.987364 
L 649.950837 125.152067 
L 650.350065 168.69127 
L 650.749293 88.349612 
L 651.148521 144.387872 
L 651.547749 156.143436 
L 651.946976 191.677946 
L 652.346204 202.782118 
L 652.745432 124.491968 
L 653.14466 274.057126 
L 653.543888 151.987029 
L 653.943116 205.16018 
L 654.342344 107.644245 
L 654.741572 209.014954 
L 655.1408 141.0928 
L 655.540027 186.234091 
L 655.939255 132.709431 
L 656.338483 186.361264 
L 656.737711 168.954293 
L 657.136939 174.963432 
L 657.536167 24.438182 
L 657.935395 211.002644 
L 658.334623 153.874157 
L 658.73385 187.370172 
L 659.133078 105.672325 
L 659.532306 135.325795 
L 659.931534 153.503291 
L 660.330762 180.127833 
L 660.72999 121.12989 
L 661.129218 126.296734 
L 661.528446 161.69436 
L 661.927674 135.452205 
L 662.326901 140.068231 
L 662.726129 114.187395 
L 663.125357 172.487899 
L 663.524585 102.398199 
L 663.923813 169.896109 
L 664.323041 140.206117 
L 664.722269 152.10906 
L 665.121497 158.469443 
L 665.520725 162.240615 
L 665.919952 174.264498 
L 666.31918 134.361957 
L 666.718408 163.021028 
L 667.117636 153.503291 
L 667.516864 130.496205 
L 667.916092 210.493418 
L 668.31532 141.914801 
L 668.714548 179.264775 
L 669.113775 180.675608 
L 669.513003 140.651004 
L 669.912231 163.454156 
L 670.311459 107.517804 
L 670.710687 164.321016 
L 671.109915 102.956394 
L 671.509143 112.026668 
L 671.908371 186.308126 
L 672.307599 111.950949 
L 672.706826 152.723695 
L 673.106054 137.708323 
L 673.505282 132.089532 
L 673.90451 103.110785 
L 674.303738 186.093165 
L 674.702966 181.316865 
L 675.102194 157.532796 
L 675.501422 143.789502 
L 675.90065 160.279464 
L 676.299877 207.912434 
L 676.699105 90.393854 
L 677.497561 174.688608 
L 677.896789 165.210398 
L 678.296017 197.577734 
L 678.695245 213.158793 
L 679.094473 191.169208 
L 679.4937 187.297009 
L 679.892928 224.274886 
L 680.292156 94.924816 
L 681.090612 210.721323 
L 681.48984 72.906452 
L 681.889068 116.146299 
L 682.288296 208.824875 
L 682.687524 160.355037 
L 683.086751 147.484699 
L 683.485979 178.027621 
L 683.885207 170.586937 
L 684.284435 143.590628 
L 684.683663 139.131987 
L 685.082891 131.06085 
L 685.482119 181.455457 
L 685.881347 153.503291 
L 686.280575 153.213779 
L 686.679802 167.020203 
L 687.07903 186.063298 
L 687.478258 164.664995 
L 687.877486 130.64168 
L 688.276714 180.429652 
L 688.675942 138.632883 
L 689.07517 170.824303 
L 689.474398 137.957125 
L 689.873625 177.809943 
L 690.272853 175.699393 
L 690.672081 71.635018 
L 691.071309 177.724751 
L 691.470537 123.693158 
L 691.869765 110.715866 
L 692.268993 263.088892 
L 692.668221 188.01674 
L 693.067449 175.150396 
L 693.466676 143.258919 
L 693.865904 135.024787 
L 694.265132 191.109277 
L 694.66436 161.28606 
L 695.063588 213.001368 
L 695.462816 142.350203 
L 695.862044 138.34596 
L 696.261272 114.521293 
L 696.6605 142.945206 
L 697.059727 192.428592 
L 697.458955 213.272085 
L 697.858183 153.503291 
L 698.257411 149.505102 
L 698.656639 129.72891 
L 699.055867 74.595716 
L 699.455095 185.04058 
L 699.854323 118.831527 
L 700.25355 162.922393 
L 700.652778 227.241459 
L 701.052006 91.801216 
L 701.451234 148.903151 
L 701.850462 105.307486 
L 702.24969 182.990761 
L 702.648918 161.318048 
L 703.048146 156.462794 
L 703.447374 155.576 
L 703.846601 144.385521 
L 704.245829 113.960958 
L 705.044285 201.158495 
L 705.443513 157.230344 
L 705.842741 156.115034 
L 706.241969 151.499235 
L 706.641197 190.691185 
L 707.040425 94.316897 
L 707.439652 114.556054 
L 707.83888 202.691802 
L 708.238108 153.503291 
L 708.637336 191.982864 
L 709.036564 170.640882 
L 709.435792 231.460005 
L 709.83502 204.774257 
L 710.234248 170.225824 
L 710.633475 162.031922 
L 711.032703 176.543654 
L 711.431931 159.528641 
L 711.831159 169.485967 
L 712.230387 112.698249 
L 712.629615 164.051884 
L 713.028843 258.153508 
L 713.428071 123.714885 
L 713.827299 219.326059 
L 714.226526 164.140413 
L 714.625754 203.317412 
L 715.024982 169.230878 
L 715.42421 108.630395 
L 715.823438 126.949931 
L 716.222666 108.102527 
L 716.621894 153.503291 
L 717.42035 109.120063 
L 717.819577 114.554859 
L 718.218805 164.257954 
L 718.618033 177.509542 
L 719.416489 224.732572 
L 719.815717 202.378741 
L 720.214945 217.705772 
L 720.614173 205.917599 
L 721.0134 142.593164 
L 721.412628 123.100413 
L 721.811856 139.041546 
L 722.211084 148.484844 
L 722.610312 200.477787 
L 723.00954 75.818311 
L 723.408768 228.525087 
L 723.807996 161.197402 
L 724.207224 134.114922 
L 724.606451 151.892398 
L 725.005679 149.867967 
L 725.404907 184.120082 
L 725.804135 177.918723 
L 726.203363 193.069243 
L 726.602591 102.017073 
L 727.001819 130.699997 
L 727.401047 106.51951 
L 727.800275 159.159895 
L 728.199502 184.766876 
L 728.59873 225.057245 
L 728.997958 110.092773 
L 729.397186 93.644124 
L 729.796414 270.239741 
L 730.195642 96.200027 
L 730.59487 178.159906 
L 730.994098 102.23477 
L 731.393325 173.193018 
L 731.792553 80.326593 
L 732.191781 195.704392 
L 732.591009 116.912177 
L 733.389465 166.23809 
L 733.788693 101.222843 
L 734.187921 196.314034 
L 734.587149 79.547465 
L 734.986376 130.672719 
L 735.385604 72.315797 
L 735.784832 197.491792 
L 736.18406 108.2009 
L 736.583288 138.535683 
L 736.982516 182.531078 
L 737.381744 201.378878 
L 737.780972 203.998185 
L 738.1802 187.260858 
L 738.579427 106.04865 
L 738.978655 66.871878 
L 739.377883 143.908802 
L 739.777111 107.127306 
L 740.176339 211.883861 
L 740.575567 230.916452 
L 740.974795 132.469139 
L 741.374023 170.156108 
L 741.77325 176.46294 
L 742.172478 153.098099 
L 742.571706 118.054927 
L 743.370162 201.222746 
L 743.76939 198.89305 
L 744.168618 104.259828 
L 744.567846 148.188367 
L 744.967074 75.837923 
L 745.366301 209.276026 
L 745.765529 182.575061 
L 746.164757 216.706666 
L 746.563985 149.513283 
L 747.761669 197.505415 
L 748.160897 146.064974 
L 748.560125 143.457079 
L 748.959352 168.955363 
L 749.35858 136.15393 
L 749.757808 131.249399 
L 750.157036 171.871814 
L 750.556264 130.495934 
L 750.955492 128.588322 
L 751.35472 117.201052 
L 751.753948 164.48374 
L 752.153175 125.346707 
L 752.552403 123.652242 
L 752.951631 136.320695 
L 753.350859 128.714634 
L 753.750087 154.079301 
L 754.149315 210.687 
L 754.548543 158.364077 
L 754.947771 192.247301 
L 755.346999 168.41772 
L 755.746226 159.181125 
L 756.145454 136.163719 
L 756.544682 186.089043 
L 756.94391 175.877019 
L 757.343138 221.60042 
L 757.742366 109.715511 
L 758.141594 189.097906 
L 758.540822 168.390698 
L 758.94005 195.975303 
L 759.339277 187.937556 
L 759.738505 141.647762 
L 760.137733 154.021687 
L 760.536961 153.503291 
L 760.936189 128.836102 
L 761.335417 168.539047 
L 761.734645 117.136507 
L 762.133873 152.661422 
L 762.5331 151.764891 
L 762.932328 220.133862 
L 763.331556 171.555192 
L 763.730784 62.590452 
L 764.130012 67.230763 
L 764.52924 138.964177 
L 764.928468 184.441039 
L 765.327696 123.725174 
L 765.726924 191.473368 
L 766.126151 136.396914 
L 766.525379 111.057373 
L 766.924607 202.393728 
L 767.323835 163.564684 
L 767.723063 198.009327 
L 768.122291 190.13378 
L 768.521519 141.604955 
L 768.920747 235.769839 
L 769.719202 128.115997 
L 770.11843 113.178599 
L 770.916886 192.256277 
L 771.715342 101.78558 
L 772.11457 178.093145 
L 773.312253 129.741646 
L 773.711481 140.343066 
L 774.110709 120.142893 
L 774.509937 123.746702 
L 774.909165 95.425058 
L 775.308393 112.583456 
L 775.707621 105.733093 
L 776.506076 157.251519 
L 776.905304 226.75736 
L 777.304532 125.266494 
L 777.70376 118.600799 
L 778.102988 160.834659 
L 778.502216 174.146535 
L 778.901444 172.382777 
L 779.300672 145.320902 
L 779.699899 150.789101 
L 780.099127 94.236743 
L 780.498355 127.093251 
L 780.897583 203.777751 
L 781.296811 100.996707 
L 781.696039 171.89167 
L 782.095267 162.613369 
L 782.494495 164.602131 
L 782.893723 138.038949 
L 783.29295 158.214419 
L 783.692178 107.450892 
L 784.091406 184.495175 
L 784.490634 189.192301 
L 784.889862 102.6934 
L 785.28909 176.899232 
L 785.688318 224.035074 
L 786.087546 146.865759 
L 786.486774 95.793092 
L 786.886001 97.261255 
L 787.285229 175.763996 
L 787.684457 180.633515 
L 788.083685 205.400121 
L 788.482913 145.828393 
L 788.882141 177.755096 
L 789.281369 169.936446 
L 789.680597 147.192617 
L 790.079824 138.119636 
L 790.479052 163.758579 
L 790.87828 117.397604 
L 791.277508 171.987625 
L 791.676736 137.255043 
L 792.075964 264.337231 
L 792.475192 63.920278 
L 793.273648 176.167663 
L 793.672875 134.964992 
L 794.072103 161.768298 
L 794.471331 177.80209 
L 794.870559 225.497911 
L 795.269787 138.081024 
L 795.669015 138.09502 
L 796.068243 161.553241 
L 796.467471 152.098353 
L 797.265926 106.391873 
L 797.665154 161.455312 
L 798.064382 170.542824 
L 798.46361 201.122972 
L 798.862838 195.613114 
L 799.262066 117.903344 
L 799.661294 171.913009 
L 800.060522 136.796298 
L 800.459749 205.767772 
L 800.858977 116.283408 
L 801.258205 154.729199 
L 801.657433 205.306966 
L 802.056661 233.123387 
L 802.455889 249.410263 
L 802.855117 125.607669 
L 803.254345 141.204761 
L 803.653573 89.646087 
L 804.0528 168.150371 
L 804.452028 182.550997 
L 804.851256 206.409869 
L 805.250484 168.103513 
L 805.649712 163.362998 
L 806.04894 200.190377 
L 806.448168 174.993068 
L 806.847396 157.130824 
L 807.246624 132.675206 
L 807.645851 209.872121 
L 808.045079 138.5275 
L 808.444307 185.433667 
L 808.843535 106.92679 
L 809.242763 140.395063 
L 809.641991 82.015563 
L 810.041219 188.099584 
L 810.440447 152.943193 
L 810.839674 140.631829 
L 811.238902 137.077134 
L 811.63813 91.830746 
L 812.037358 89.432666 
L 812.436586 127.1577 
L 812.835814 209.940092 
L 813.235042 147.783561 
L 813.63427 135.905785 
L 814.033498 147.696052 
L 814.432725 112.096736 
L 814.831953 143.824434 
L 815.231181 235.127286 
L 815.630409 144.790751 
L 816.029637 263.398779 
L 816.428865 136.468384 
L 816.828093 142.870659 
L 817.227321 174.180752 
L 817.626549 171.339916 
L 818.025776 109.997876 
L 818.425004 182.885746 
L 818.824232 169.802497 
L 819.22346 112.381654 
L 819.622688 221.045571 
L 820.021916 90.758219 
L 820.421144 125.032675 
L 820.820372 138.291594 
L 821.219599 213.480806 
L 821.618827 183.106668 
L 822.018055 104.183671 
L 822.417283 117.492893 
L 822.816511 146.276068 
L 823.215739 145.483407 
L 823.614967 206.996696 
L 824.014195 187.810572 
L 824.413423 188.823789 
L 824.81265 175.457463 
L 825.211878 193.781793 
L 825.611106 236.831817 
L 826.010334 168.365078 
L 826.409562 149.624108 
L 826.80879 205.655514 
L 827.208018 87.565543 
L 827.607246 175.71684 
L 828.006474 125.668855 
L 828.405701 112.778134 
L 828.804929 77.907875 
L 829.204157 135.300533 
L 830.002613 197.236579 
L 830.401841 110.219983 
L 830.801069 157.896243 
L 831.200297 124.803656 
L 831.599524 121.265839 
L 831.998752 80.891826 
L 832.39798 186.894063 
L 832.797208 71.387019 
L 833.196436 185.307667 
L 833.595664 81.43777 
L 833.994892 221.127208 
L 834.39412 125.925974 
L 834.793348 173.76466 
L 835.192575 136.27722 
L 835.591803 180.299064 
L 835.991031 204.475141 
L 836.390259 122.132116 
L 836.789487 195.665354 
L 837.188715 189.197547 
L 837.587943 163.049377 
L 837.987171 93.810414 
L 838.386399 96.599405 
L 838.785626 149.067525 
L 839.184854 220.604517 
L 839.584082 68.888889 
L 839.98331 101.536562 
L 840.382538 181.638483 
L 841.180994 136.604213 
L 841.580222 207.078721 
L 841.979449 144.727455 
L 842.378677 150.679493 
L 842.777905 169.310404 
L 843.177133 159.12382 
L 843.576361 159.551043 
L 843.975589 193.182945 
L 844.374817 198.852594 
L 844.774045 197.562934 
L 845.173273 135.243522 
L 845.5725 207.858556 
L 846.370956 169.133455 
L 846.770184 173.001636 
L 847.169412 134.616446 
L 847.56864 192.65285 
L 848.367096 157.211014 
L 848.766324 178.537329 
L 849.165551 177.93289 
L 849.564779 155.108442 
L 850.363235 103.480219 
L 850.762463 112.129081 
L 851.161691 152.238538 
L 851.560919 127.308453 
L 851.960147 167.765317 
L 852.758602 136.922937 
L 853.15783 163.551933 
L 853.557058 151.377219 
L 853.956286 114.207266 
L 854.754742 182.363382 
L 855.15397 153.005897 
L 855.553198 154.439887 
L 855.952425 176.943293 
L 856.351653 137.043974 
L 856.750881 83.949099 
L 857.150109 150.659075 
L 857.549337 127.956817 
L 857.948565 54.707326 
L 858.347793 189.168423 
L 858.747021 123.656864 
L 859.146249 158.117267 
L 859.944704 109.504808 
L 860.74316 208.83462 
L 861.142388 186.02491 
L 861.541616 95.806011 
L 861.940844 96.289248 
L 862.340072 156.438598 
L 862.739299 155.080739 
L 863.138527 143.179406 
L 863.537755 118.765412 
L 863.936983 105.15065 
L 864.336211 158.796346 
L 864.735439 194.67636 
L 865.134667 150.420864 
L 865.533895 56.531921 
L 866.33235 186.604042 
L 866.731578 207.401513 
L 867.130806 185.61703 
L 867.530034 181.218257 
L 867.929262 184.607728 
L 868.32849 151.584227 
L 868.727718 132.77938 
L 869.126946 188.168754 
L 869.526174 85.900243 
L 869.925401 188.935681 
L 870.723857 125.881362 
L 871.123085 162.692834 
L 871.522313 65.949081 
L 871.921541 167.405472 
L 872.320769 133.543991 
L 872.719997 28.858041 
L 873.119224 139.427338 
L 873.518452 162.388718 
L 873.91768 140.367048 
L 874.316908 155.555448 
L 874.716136 129.070769 
L 875.115364 77.372516 
L 875.514592 180.268082 
L 875.91382 158.726075 
L 876.313048 154.983904 
L 876.712275 81.345806 
L 877.111503 113.917734 
L 877.510731 119.771268 
L 877.909959 97.439193 
L 878.309187 219.678216 
L 878.708415 108.512475 
L 879.107643 177.869144 
L 879.506871 82.697147 
L 879.906099 103.993603 
L 880.305326 169.264026 
L 880.704554 193.076952 
L 881.103782 102.130239 
L 881.50301 202.820858 
L 881.902238 96.459283 
L 882.301466 127.820293 
L 882.700694 96.655972 
L 883.099922 250.404672 
L 883.898377 134.082392 
L 884.297605 120.500776 
L 884.696833 115.068997 
L 885.096061 217.523668 
L 885.495289 156.649802 
L 885.894517 176.932943 
L 886.293745 210.014447 
L 886.692973 123.78487 
L 887.0922 196.317301 
L 887.491428 153.503291 
L 887.890656 202.599623 
L 888.289884 125.626949 
L 888.689112 194.057695 
L 889.08834 138.780006 
L 889.487568 219.768621 
L 889.886796 132.922527 
L 890.286024 166.906034 
L 890.685251 218.678256 
L 891.084479 118.313292 
L 891.483707 175.195925 
L 891.882935 165.523502 
L 892.282163 262.341591 
L 892.681391 184.98285 
L 893.080619 151.847883 
L 893.479847 151.09893 
L 893.879074 197.349477 
L 894.278302 170.380805 
L 894.67753 131.057895 
L 895.076758 150.023165 
L 895.475986 105.281375 
L 895.875214 137.620586 
L 896.274442 181.28069 
L 896.67367 134.514102 
L 897.072898 180.719679 
L 897.472125 101.952154 
L 897.871353 138.846775 
L 898.270581 68.170321 
L 898.669809 123.195469 
L 899.069037 150.605583 
L 899.468265 102.079672 
L 899.867493 192.124447 
L 900.266721 117.227882 
L 900.665949 180.639283 
L 901.065176 191.638743 
L 901.464404 151.373259 
L 901.863632 145.463221 
L 902.26286 193.057882 
L 902.662088 150.110749 
L 903.061316 171.599877 
L 903.460544 179.874494 
L 903.859772 177.508508 
L 904.258999 114.456195 
L 904.658227 187.881157 
L 905.057455 181.938233 
L 905.456683 222.585126 
L 905.855911 215.008799 
L 906.255139 199.216912 
L 906.654367 150.883704 
L 907.053595 149.637999 
L 907.452823 137.322224 
L 907.85205 113.689361 
L 908.650506 223.916525 
L 909.049734 166.441835 
L 909.84819 188.804259 
L 910.247418 142.871738 
L 910.646646 206.539851 
L 911.045874 111.406516 
L 911.445101 213.470321 
L 911.844329 155.915148 
L 912.243557 144.549018 
L 912.642785 91.262619 
L 913.042013 184.823425 
L 913.441241 144.373787 
L 913.840469 119.690385 
L 914.239697 184.30295 
L 914.638924 131.218001 
L 915.038152 136.405367 
L 915.43738 115.265538 
L 915.836608 204.254205 
L 916.235836 125.545208 
L 916.635064 158.025833 
L 917.034292 173.05644 
L 917.43352 156.26566 
L 917.832748 229.496587 
L 918.231975 138.80054 
L 918.631203 116.400373 
L 919.030431 126.172878 
L 919.429659 106.297252 
L 919.828887 197.015571 
L 920.228115 130.769891 
L 920.627343 179.422529 
L 921.026571 174.088328 
L 921.425799 119.623574 
L 921.825026 114.160243 
L 922.224254 194.288757 
L 922.623482 172.927121 
L 923.02271 109.788789 
L 923.421938 161.409364 
L 923.821166 181.074813 
L 924.220394 153.590855 
L 924.619622 40.825244 
L 925.018849 160.856844 
L 925.418077 138.681073 
L 925.817305 92.380295 
L 926.216533 92.380941 
L 926.615761 67.958609 
L 927.014989 94.747122 
L 927.414217 105.074403 
L 927.813445 208.603451 
L 928.212673 214.258562 
L 928.6119 153.337401 
L 929.011128 155.989764 
L 929.410356 120.493986 
L 929.809584 167.621652 
L 930.208812 144.07353 
L 930.60804 199.438997 
L 931.007268 132.67147 
L 931.406496 100.978097 
L 931.805724 152.429339 
L 932.204951 176.106801 
L 932.604179 79.39841 
L 933.003407 222.606081 
L 933.801863 101.85907 
L 934.201091 157.351675 
L 934.600319 118.314071 
L 934.999547 110.131933 
L 935.398774 166.212852 
L 935.798002 153.024466 
L 936.19723 234.321321 
L 936.596458 90.728848 
L 936.995686 181.583295 
L 937.394914 126.968187 
L 937.794142 194.85073 
L 938.19337 114.748969 
L 938.592598 177.570759 
L 938.991825 189.258509 
L 939.790281 257.319781 
L 940.189509 218.38192 
L 940.588737 104.475547 
L 940.987965 66.519334 
L 941.387193 189.9701 
L 941.786421 146.326704 
L 942.185649 181.386404 
L 942.584876 85.668301 
L 942.984104 123.578857 
L 943.383332 146.644857 
L 943.78256 212.129856 
L 944.181788 127.664685 
L 944.581016 204.993976 
L 944.980244 247.082553 
L 945.379472 88.005742 
L 945.778699 153.091337 
L 946.577155 209.061356 
L 946.976383 112.102445 
L 947.375611 158.735178 
L 947.774839 144.603032 
L 948.174067 217.172244 
L 948.573295 101.688245 
L 948.972523 168.790175 
L 949.37175 111.761276 
L 949.770978 119.342444 
L 950.170206 135.074733 
L 950.569434 89.468135 
L 950.968662 211.357008 
L 951.36789 109.229136 
L 951.767118 194.312067 
L 952.166346 223.809466 
L 952.565574 159.067013 
L 952.964801 162.345441 
L 953.364029 183.504468 
L 953.763257 107.251977 
L 954.162485 190.754933 
L 954.561713 140.801976 
L 954.960941 134.124694 
L 955.360169 193.246858 
L 955.759397 101.348106 
L 956.158624 164.276935 
L 956.557852 67.558949 
L 956.95708 134.827994 
L 957.356308 154.397176 
L 957.755536 200.251238 
L 958.553992 127.922865 
L 958.95322 85.107902 
L 959.352448 161.061281 
L 959.751675 139.894962 
L 960.150903 171.393286 
L 960.550131 180.638215 
L 960.949359 176.051081 
L 961.348587 186.153186 
L 961.747815 188.261838 
L 962.546271 102.980096 
L 962.945499 197.842178 
L 963.344726 212.126578 
L 963.743954 157.828952 
L 964.143182 204.860623 
L 964.54241 151.792918 
L 964.941638 129.046737 
L 965.340866 155.014674 
L 965.740094 146.867844 
L 966.139322 247.475435 
L 966.538549 171.720188 
L 966.937777 154.198674 
L 967.337005 149.977344 
L 967.736233 158.875139 
L 968.135461 197.702294 
L 968.534689 169.953285 
L 968.933917 194.818004 
L 969.333145 180.765151 
L 969.732373 100.519241 
L 970.1316 155.86848 
L 970.530828 43.960656 
L 970.930056 52.602832 
L 971.329284 171.719741 
L 971.728512 144.439464 
L 972.12774 195.6579 
L 972.526968 87.62397 
L 972.926196 187.122302 
L 973.325424 138.30777 
L 973.724651 190.121995 
L 974.123879 183.874675 
L 974.523107 179.902649 
L 974.922335 143.616767 
L 975.720791 215.791266 
L 976.120019 135.716842 
L 976.519247 134.165502 
L 976.918474 124.841846 
L 977.317702 42.353187 
L 977.71693 121.273286 
L 978.116158 143.130933 
L 978.515386 212.972047 
L 978.914614 217.491819 
L 979.313842 111.582735 
L 979.71307 126.056699 
L 980.112298 183.460458 
L 980.511525 190.395833 
L 980.910753 146.413066 
L 981.309981 217.695926 
L 981.709209 253.769405 
L 982.108437 160.526981 
L 982.507665 125.336964 
L 982.906893 179.914708 
L 983.306121 96.672808 
L 983.705349 127.116547 
L 984.104576 111.569783 
L 984.503804 87.894748 
L 984.903032 174.410419 
L 985.30226 129.254503 
L 985.701488 181.617923 
L 986.100716 161.704621 
L 986.499944 132.928509 
L 986.899172 221.336873 
L 987.298399 79.443631 
L 987.697627 179.487735 
L 988.096855 147.97684 
L 988.496083 205.096694 
L 988.895311 99.570135 
L 989.294539 180.049384 
L 989.693767 165.349812 
L 990.092995 191.886706 
L 990.492223 150.327433 
L 990.89145 175.667243 
L 991.290678 190.665821 
L 991.689906 96.389104 
L 992.089134 205.319447 
L 992.88759 53.04013 
L 993.286818 181.346158 
L 993.686046 78.871124 
L 994.085274 175.856287 
L 994.484501 189.735117 
L 994.883729 178.988782 
L 995.282957 180.313137 
L 995.682185 81.077269 
L 996.081413 141.859216 
L 996.480641 161.938487 
L 996.879869 137.968829 
L 997.279097 186.473723 
L 997.678324 114.497538 
L 998.077552 131.211302 
L 998.47678 178.604363 
L 998.876008 197.80025 
L 999.275236 170.67219 
L 999.674464 200.483352 
L 1000.073692 156.807421 
L 1000.47292 49.50915 
L 1000.872148 106.138944 
L 1001.271375 192.089693 
L 1002.069831 126.371498 
L 1002.469059 134.398151 
L 1002.868287 103.425487 
L 1003.267515 248.921734 
L 1004.065971 92.946526 
L 1004.465199 159.737333 
L 1004.864426 117.360351 
L 1005.263654 176.597013 
L 1005.662882 217.275957 
L 1006.06211 230.631699 
L 1006.461338 120.213083 
L 1006.860566 250.43171 
L 1007.259794 180.015772 
L 1007.659022 89.156883 
L 1008.058249 205.076008 
L 1008.457477 207.445122 
L 1009.255933 104.498923 
L 1010.054389 158.5452 
L 1010.453617 138.091819 
L 1010.852845 157.05445 
L 1011.252073 135.700199 
L 1012.050528 129.658889 
L 1012.449756 162.131115 
L 1012.848984 113.762862 
L 1013.248212 179.446895 
L 1013.64744 170.147966 
L 1014.046668 141.248961 
L 1014.445896 153.572828 
L 1014.845124 176.233946 
L 1015.244351 118.938093 
L 1015.643579 120.586241 
L 1016.042807 142.101258 
L 1016.442035 192.17682 
L 1016.841263 86.069226 
L 1017.240491 119.48673 
L 1017.639719 127.013068 
L 1018.038947 165.591449 
L 1018.438174 149.311907 
L 1018.837402 149.939543 
L 1019.23663 99.769111 
L 1019.635858 199.649736 
L 1020.035086 148.895206 
L 1020.434314 181.275472 
L 1020.833542 106.074988 
L 1021.23277 171.801006 
L 1021.631998 122.189807 
L 1022.031225 217.679704 
L 1022.430453 148.396964 
L 1022.829681 114.715056 
L 1023.228909 270.805268 
L 1023.228909 270.805268 
" clip-path="url(#p1ceba9211d)" style="fill: none; stroke: #808080; stroke-linecap: square"/>
   </g>
   <g id="line2d_2">
    <defs>
     <path id="m2392869fd6" d="M 0 3 
C 0.795609 3 1.55874 2.683901 2.12132 2.12132 
C 2.683901 1.55874 3 0.795609 3 0 
C 3 -0.795609 2.683901 -1.55874 2.12132 -2.12132 
C 1.55874 -2.683901 0.795609 -3 0 -3 
C -0.795609 -3 -1.55874 -2.683901 -2.12132 -2.12132 
C -2.683901 -1.55874 -3 -0.795609 -3 0 
C -3 0.795609 -2.683901 1.55874 -2.12132 2.12132 
C -1.55874 2.683901 -0.795609 3 0 3 
z
" style="stroke: #000000"/>
    </defs>
    <g clip-path="url(#p1ceba9211d)">
     <use xlink:href="#m2392869fd6" x="159.698995" y="153.503291" style="stroke: #000000"/>
    </g>
   </g>
   <g id="line2d_3">
    <g clip-path="url(#p1ceba9211d)">
     <use xlink:href="#m2392869fd6" x="159.698995" y="153.503291" style="stroke: #000000"/>
    </g>
   </g>
   <g id="line2d_4">
    <g clip-path="url(#p1ceba9211d)">
     <use xlink:href="#m2392869fd6" x="177.265022" y="153.503291" style="stroke: #000000"/>
    </g>
   </g>
   <g id="line2d_5">
    <g clip-path="url(#p1ceba9211d)">
     <use xlink:href="#m2392869fd6" x="237.149204" y="153.503291" style="stroke: #000000"/>
    </g>
   </g>
   <g id="line2d_6">
    <g clip-path="url(#p1ceba9211d)">
     <use xlink:href="#m2392869fd6" x="335.359264" y="153.503291" style="stroke: #000000"/>
    </g>
   </g>
   <g id="line2d_7">
    <g clip-path="url(#p1ceba9211d)">
     <use xlink:href="#m2392869fd6" x="340.549226" y="153.503291" style="stroke: #000000"/>
    </g>
   </g>
   <g id="line2d_8">
    <g clip-path="url(#p1ceba9211d)">
     <use xlink:href="#m2392869fd6" x="378.875103" y="153.503291" style="stroke: #000000"/>
    </g>
   </g>
   <g id="line2d_9">
    <g clip-path="url(#p1ceba9211d)">
     <use xlink:href="#m2392869fd6" x="414.406385" y="153.503291" style="stroke: #000000"/>
    </g>
   </g>
   <g id="line2d_10">
    <g clip-path="url(#p1ceba9211d)">
     <use xlink:href="#m2392869fd6" x="429.577045" y="153.503291" style="stroke: #000000"/>
    </g>
   </g>
   <g id="line2d_11">
    <g clip-path="url(#p1ceba9211d)">
     <use xlink:href="#m2392869fd6" x="436.363919" y="153.503291" style="stroke: #000000"/>
    </g>
   </g>
   <g id="line2d_12">
    <g clip-path="url(#p1ceba9211d)">
     <use xlink:href="#m2392869fd6" x="470.298289" y="153.503291" style="stroke: #000000"/>
    </g>
   </g>
   <g id="line2d_13">
    <g clip-path="url(#p1ceba9211d)">
     <use xlink:href="#m2392869fd6" x="493.453506" y="153.503291" style="stroke: #000000"/>
    </g>
   </g>
   <g id="line2d_14">
    <g clip-path="url(#p1ceba9211d)">
     <use xlink:href="#m2392869fd6" x="530.182472" y="153.503291" style="stroke: #000000"/>
    </g>
   </g>
   <g id="line2d_15">
    <g clip-path="url(#p1ceba9211d)">
     <use xlink:href="#m2392869fd6" x="559.725335" y="153.503291" style="stroke: #000000"/>
    </g>
   </g>
   <g id="line2d_16">
    <g clip-path="url(#p1ceba9211d)">
     <use xlink:href="#m2392869fd6" x="572.1014" y="153.503291" style="stroke: #000000"/>
    </g>
   </g>
   <g id="line2d_17">
    <g clip-path="url(#p1ceba9211d)">
     <use xlink:href="#m2392869fd6" x="624.400252" y="153.503291" style="stroke: #000000"/>
    </g>
   </g>
   <g id="line2d_18">
    <g clip-path="url(#p1ceba9211d)">
     <use xlink:href="#m2392869fd6" x="642.365507" y="153.503291" style="stroke: #000000"/>
    </g>
   </g>
   <g id="line2d_19">
    <g clip-path="url(#p1ceba9211d)">
     <use xlink:href="#m2392869fd6" x="659.931534" y="153.503291" style="stroke: #000000"/>
    </g>
   </g>
   <g id="line2d_20">
    <g clip-path="url(#p1ceba9211d)">
     <use xlink:href="#m2392869fd6" x="667.117636" y="153.503291" style="stroke: #000000"/>
    </g>
   </g>
   <g id="line2d_21">
    <g clip-path="url(#p1ceba9211d)">
     <use xlink:href="#m2392869fd6" x="685.881347" y="153.503291" style="stroke: #000000"/>
    </g>
   </g>
   <g id="line2d_22">
    <g clip-path="url(#p1ceba9211d)">
     <use xlink:href="#m2392869fd6" x="697.858183" y="153.503291" style="stroke: #000000"/>
    </g>
   </g>
   <g id="line2d_23">
    <g clip-path="url(#p1ceba9211d)">
     <use xlink:href="#m2392869fd6" x="708.238108" y="153.503291" style="stroke: #000000"/>
    </g>
   </g>
   <g id="line2d_24">
    <g clip-path="url(#p1ceba9211d)">
     <use xlink:href="#m2392869fd6" x="716.621894" y="153.503291" style="stroke: #000000"/>
    </g>
   </g>
   <g id="line2d_25">
    <g clip-path="url(#p1ceba9211d)">
     <use xlink:href="#m2392869fd6" x="760.536961" y="153.503291" style="stroke: #000000"/>
    </g>
   </g>
   <g id="line2d_26">
    <g clip-path="url(#p1ceba9211d)">
     <use xlink:href="#m2392869fd6" x="887.491428" y="153.503291" style="stroke: #000000"/>
    </g>
   </g>
   <g id="matplotlib.axis_1">
    <g id="xtick_1">
     <g id="line2d_27">
      <defs>
       <path id="m9b8d0e1684" d="M 0 0 
L 0 3.5 
" style="stroke: #000000; stroke-width: 0.8"/>
      </defs>
      <g>
       <use xlink:href="#m9b8d0e1684" x="103.807091" y="310.84" style="stroke: #000000; stroke-width: 0.8"/>
      </g>
     </g>
     <g id="text_1">
      <!-- 0 -->
      <g transform="translate(99.353341 328.477813) scale(0.14 -0.14)">
       <defs>
        <path id="DejaVuSans-30" d="M 2034 4250 
Q 1547 4250 1301 3770 
Q 1056 3291 1056 2328 
Q 1056 1369 1301 889 
Q 1547 409 2034 409 
Q 2525 409 2770 889 
Q 3016 1369 3016 2328 
Q 3016 3291 2770 3770 
Q 2525 4250 2034 4250 
z
M 2034 4750 
Q 2819 4750 3233 4129 
Q 3647 3509 3647 2328 
Q 3647 1150 3233 529 
Q 2819 -91 2034 -91 
Q 1250 -91 836 529 
Q 422 1150 422 2328 
Q 422 3509 836 4129 
Q 1250 4750 2034 4750 
z
" transform="scale(0.015625)"/>
       </defs>
       <use xlink:href="#DejaVuSans-30"/>
      </g>
     </g>
    </g>
    <g id="xtick_2">
     <g id="line2d_28">
      <g>
       <use xlink:href="#m9b8d0e1684" x="303.421033" y="310.84" style="stroke: #000000; stroke-width: 0.8"/>
      </g>
     </g>
     <g id="text_2">
      <!-- 500 -->
      <g transform="translate(290.059783 328.477813) scale(0.14 -0.14)">
       <defs>
        <path id="DejaVuSans-35" d="M 691 4666 
L 3169 4666 
L 3169 4134 
L 1269 4134 
L 1269 2991 
Q 1406 3038 1543 3061 
Q 1681 3084 1819 3084 
Q 2600 3084 3056 2656 
Q 3513 2228 3513 1497 
Q 3513 744 3044 326 
Q 2575 -91 1722 -91 
Q 1428 -91 1123 -41 
Q 819 9 494 109 
L 494 744 
Q 775 591 1075 516 
Q 1375 441 1709 441 
Q 2250 441 2565 725 
Q 2881 1009 2881 1497 
Q 2881 1984 2565 2268 
Q 2250 2553 1709 2553 
Q 1456 2553 1204 2497 
Q 953 2441 691 2322 
L 691 4666 
z
" transform="scale(0.015625)"/>
       </defs>
       <use xlink:href="#DejaVuSans-35"/>
       <use xlink:href="#DejaVuSans-30" x="63.623047"/>
       <use xlink:href="#DejaVuSans-30" x="127.246094"/>
      </g>
     </g>
    </g>
    <g id="xtick_3">
     <g id="line2d_29">
      <g>
       <use xlink:href="#m9b8d0e1684" x="503.034975" y="310.84" style="stroke: #000000; stroke-width: 0.8"/>
      </g>
     </g>
     <g id="text_3">
      <!-- 1000 -->
      <g transform="translate(485.219975 328.477813) scale(0.14 -0.14)">
       <defs>
        <path id="DejaVuSans-31" d="M 794 531 
L 1825 531 
L 1825 4091 
L 703 3866 
L 703 4441 
L 1819 4666 
L 2450 4666 
L 2450 531 
L 3481 531 
L 3481 0 
L 794 0 
L 794 531 
z
" transform="scale(0.015625)"/>
       </defs>
       <use xlink:href="#DejaVuSans-31"/>
       <use xlink:href="#DejaVuSans-30" x="63.623047"/>
       <use xlink:href="#DejaVuSans-30" x="127.246094"/>
       <use xlink:href="#DejaVuSans-30" x="190.869141"/>
      </g>
     </g>
    </g>
    <g id="xtick_4">
     <g id="line2d_30">
      <g>
       <use xlink:href="#m9b8d0e1684" x="702.648918" y="310.84" style="stroke: #000000; stroke-width: 0.8"/>
      </g>
     </g>
     <g id="text_4">
      <!-- 1500 -->
      <g transform="translate(684.833918 328.477813) scale(0.14 -0.14)">
       <use xlink:href="#DejaVuSans-31"/>
       <use xlink:href="#DejaVuSans-35" x="63.623047"/>
       <use xlink:href="#DejaVuSans-30" x="127.246094"/>
       <use xlink:href="#DejaVuSans-30" x="190.869141"/>
      </g>
     </g>
    </g>
    <g id="xtick_5">
     <g id="line2d_31">
      <g>
       <use xlink:href="#m9b8d0e1684" x="902.26286" y="310.84" style="stroke: #000000; stroke-width: 0.8"/>
      </g>
     </g>
     <g id="text_5">
      <!-- 2000 -->
      <g transform="translate(884.44786 328.477813) scale(0.14 -0.14)">
       <defs>
        <path id="DejaVuSans-32" d="M 1228 531 
L 3431 531 
L 3431 0 
L 469 0 
L 469 531 
Q 828 903 1448 1529 
Q 2069 2156 2228 2338 
Q 2531 2678 2651 2914 
Q 2772 3150 2772 3378 
Q 2772 3750 2511 3984 
Q 2250 4219 1831 4219 
Q 1534 4219 1204 4116 
Q 875 4013 500 3803 
L 500 4441 
Q 881 4594 1212 4672 
Q 1544 4750 1819 4750 
Q 2544 4750 2975 4387 
Q 3406 4025 3406 3419 
Q 3406 3131 3298 2873 
Q 3191 2616 2906 2266 
Q 2828 2175 2409 1742 
Q 1991 1309 1228 531 
z
" transform="scale(0.015625)"/>
       </defs>
       <use xlink:href="#DejaVuSans-32"/>
       <use xlink:href="#DejaVuSans-30" x="63.623047"/>
       <use xlink:href="#DejaVuSans-30" x="127.246094"/>
       <use xlink:href="#DejaVuSans-30" x="190.869141"/>
      </g>
     </g>
    </g>
    <g id="text_6">
     <!-- MLP neuron # -->
     <g transform="translate(514.422844 346.027188) scale(0.14 -0.14)">
      <defs>
       <path id="DejaVuSans-4d" d="M 628 4666 
L 1569 4666 
L 2759 1491 
L 3956 4666 
L 4897 4666 
L 4897 0 
L 4281 0 
L 4281 4097 
L 3078 897 
L 2444 897 
L 1241 4097 
L 1241 0 
L 628 0 
L 628 4666 
z
" transform="scale(0.015625)"/>
       <path id="DejaVuSans-4c" d="M 628 4666 
L 1259 4666 
L 1259 531 
L 3531 531 
L 3531 0 
L 628 0 
L 628 4666 
z
" transform="scale(0.015625)"/>
       <path id="DejaVuSans-50" d="M 1259 4147 
L 1259 2394 
L 2053 2394 
Q 2494 2394 2734 2622 
Q 2975 2850 2975 3272 
Q 2975 3691 2734 3919 
Q 2494 4147 2053 4147 
L 1259 4147 
z
M 628 4666 
L 2053 4666 
Q 2838 4666 3239 4311 
Q 3641 3956 3641 3272 
Q 3641 2581 3239 2228 
Q 2838 1875 2053 1875 
L 1259 1875 
L 1259 0 
L 628 0 
L 628 4666 
z
" transform="scale(0.015625)"/>
       <path id="DejaVuSans-20" transform="scale(0.015625)"/>
       <path id="DejaVuSans-6e" d="M 3513 2113 
L 3513 0 
L 2938 0 
L 2938 2094 
Q 2938 2591 2744 2837 
Q 2550 3084 2163 3084 
Q 1697 3084 1428 2787 
Q 1159 2491 1159 1978 
L 1159 0 
L 581 0 
L 581 3500 
L 1159 3500 
L 1159 2956 
Q 1366 3272 1645 3428 
Q 1925 3584 2291 3584 
Q 2894 3584 3203 3211 
Q 3513 2838 3513 2113 
z
" transform="scale(0.015625)"/>
       <path id="DejaVuSans-65" d="M 3597 1894 
L 3597 1613 
L 953 1613 
Q 991 1019 1311 708 
Q 1631 397 2203 397 
Q 2534 397 2845 478 
Q 3156 559 3463 722 
L 3463 178 
Q 3153 47 2828 -22 
Q 2503 -91 2169 -91 
Q 1331 -91 842 396 
Q 353 884 353 1716 
Q 353 2575 817 3079 
Q 1281 3584 2069 3584 
Q 2775 3584 3186 3129 
Q 3597 2675 3597 1894 
z
M 3022 2063 
Q 3016 2534 2758 2815 
Q 2500 3097 2075 3097 
Q 1594 3097 1305 2825 
Q 1016 2553 972 2059 
L 3022 2063 
z
" transform="scale(0.015625)"/>
       <path id="DejaVuSans-75" d="M 544 1381 
L 544 3500 
L 1119 3500 
L 1119 1403 
Q 1119 906 1312 657 
Q 1506 409 1894 409 
Q 2359 409 2629 706 
Q 2900 1003 2900 1516 
L 2900 3500 
L 3475 3500 
L 3475 0 
L 2900 0 
L 2900 538 
Q 2691 219 2414 64 
Q 2138 -91 1772 -91 
Q 1169 -91 856 284 
Q 544 659 544 1381 
z
M 1991 3584 
L 1991 3584 
z
" transform="scale(0.015625)"/>
       <path id="DejaVuSans-72" d="M 2631 2963 
Q 2534 3019 2420 3045 
Q 2306 3072 2169 3072 
Q 1681 3072 1420 2755 
Q 1159 2438 1159 1844 
L 1159 0 
L 581 0 
L 581 3500 
L 1159 3500 
L 1159 2956 
Q 1341 3275 1631 3429 
Q 1922 3584 2338 3584 
Q 2397 3584 2469 3576 
Q 2541 3569 2628 3553 
L 2631 2963 
z
" transform="scale(0.015625)"/>
       <path id="DejaVuSans-6f" d="M 1959 3097 
Q 1497 3097 1228 2736 
Q 959 2375 959 1747 
Q 959 1119 1226 758 
Q 1494 397 1959 397 
Q 2419 397 2687 759 
Q 2956 1122 2956 1747 
Q 2956 2369 2687 2733 
Q 2419 3097 1959 3097 
z
M 1959 3584 
Q 2709 3584 3137 3096 
Q 3566 2609 3566 1747 
Q 3566 888 3137 398 
Q 2709 -91 1959 -91 
Q 1206 -91 779 398 
Q 353 888 353 1747 
Q 353 2609 779 3096 
Q 1206 3584 1959 3584 
z
" transform="scale(0.015625)"/>
       <path id="DejaVuSans-23" d="M 3272 2816 
L 2363 2816 
L 2100 1772 
L 3016 1772 
L 3272 2816 
z
M 2803 4594 
L 2478 3297 
L 3391 3297 
L 3719 4594 
L 4219 4594 
L 3897 3297 
L 4872 3297 
L 4872 2816 
L 3775 2816 
L 3519 1772 
L 4513 1772 
L 4513 1294 
L 3397 1294 
L 3072 0 
L 2572 0 
L 2894 1294 
L 1978 1294 
L 1656 0 
L 1153 0 
L 1478 1294 
L 494 1294 
L 494 1772 
L 1594 1772 
L 1856 2816 
L 850 2816 
L 850 3297 
L 1978 3297 
L 2297 4594 
L 2803 4594 
z
" transform="scale(0.015625)"/>
      </defs>
      <use xlink:href="#DejaVuSans-4d"/>
      <use xlink:href="#DejaVuSans-4c" x="86.279297"/>
      <use xlink:href="#DejaVuSans-50" x="141.992188"/>
      <use xlink:href="#DejaVuSans-20" x="202.294922"/>
      <use xlink:href="#DejaVuSans-6e" x="234.082031"/>
      <use xlink:href="#DejaVuSans-65" x="297.460938"/>
      <use xlink:href="#DejaVuSans-75" x="358.984375"/>
      <use xlink:href="#DejaVuSans-72" x="422.363281"/>
      <use xlink:href="#DejaVuSans-6f" x="461.226562"/>
      <use xlink:href="#DejaVuSans-6e" x="522.408203"/>
      <use xlink:href="#DejaVuSans-20" x="585.787109"/>
      <use xlink:href="#DejaVuSans-23" x="617.574219"/>
     </g>
    </g>
   </g>
   <g id="matplotlib.axis_2">
    <g id="ytick_1">
     <g id="line2d_32">
      <defs>
       <path id="m61e5bb3f2d" d="M 0 0 
L -3.5 0 
" style="stroke: #000000; stroke-width: 0.8"/>
      </defs>
      <g>
       <use xlink:href="#m61e5bb3f2d" x="57.836" y="273.985485" style="stroke: #000000; stroke-width: 0.8"/>
      </g>
     </g>
     <g id="text_7">
      <!-- 2 -->
      <g transform="translate(30.196937 279.304391) scale(0.14 -0.14)">
       <defs>
        <path id="DejaVuSans-2212" d="M 678 2272 
L 4684 2272 
L 4684 1741 
L 678 1741 
L 678 2272 
z
" transform="scale(0.015625)"/>
       </defs>
       <use xlink:href="#DejaVuSans-2212"/>
       <use xlink:href="#DejaVuSans-32" x="83.789062"/>
      </g>
     </g>
    </g>
    <g id="ytick_2">
     <g id="line2d_33">
      <g>
       <use xlink:href="#m61e5bb3f2d" x="57.836" y="213.744388" style="stroke: #000000; stroke-width: 0.8"/>
      </g>
     </g>
     <g id="text_8">
      <!-- 1 -->
      <g transform="translate(30.196937 219.063294) scale(0.14 -0.14)">
       <use xlink:href="#DejaVuSans-2212"/>
       <use xlink:href="#DejaVuSans-31" x="83.789062"/>
      </g>
     </g>
    </g>
    <g id="ytick_3">
     <g id="line2d_34">
      <g>
       <use xlink:href="#m61e5bb3f2d" x="57.836" y="153.503291" style="stroke: #000000; stroke-width: 0.8"/>
      </g>
     </g>
     <g id="text_9">
      <!-- 0 -->
      <g transform="translate(41.9285 158.822197) scale(0.14 -0.14)">
       <use xlink:href="#DejaVuSans-30"/>
      </g>
     </g>
    </g>
    <g id="ytick_4">
     <g id="line2d_35">
      <g>
       <use xlink:href="#m61e5bb3f2d" x="57.836" y="93.262194" style="stroke: #000000; stroke-width: 0.8"/>
      </g>
     </g>
     <g id="text_10">
      <!-- 1 -->
      <g transform="translate(41.9285 98.5811) scale(0.14 -0.14)">
       <use xlink:href="#DejaVuSans-31"/>
      </g>
     </g>
    </g>
    <g id="ytick_5">
     <g id="line2d_36">
      <g>
       <use xlink:href="#m61e5bb3f2d" x="57.836" y="33.021097" style="stroke: #000000; stroke-width: 0.8"/>
      </g>
     </g>
     <g id="text_11">
      <!-- 2 -->
      <g transform="translate(41.9285 38.340004) scale(0.14 -0.14)">
       <use xlink:href="#DejaVuSans-32"/>
      </g>
     </g>
    </g>
    <g id="text_12">
     <!-- $W_{MLP}$ -->
     <g transform="translate(23.285375 177.9) rotate(-90) scale(0.14 -0.14)">
      <defs>
       <path id="DejaVuSans-Oblique-57" d="M 616 4666 
L 1228 4666 
L 1453 697 
L 3213 4666 
L 3916 4666 
L 4147 697 
L 5888 4666 
L 6528 4666 
L 4453 0 
L 3659 0 
L 3444 3891 
L 1697 0 
L 903 0 
L 616 4666 
z
" transform="scale(0.015625)"/>
       <path id="DejaVuSans-Oblique-4d" d="M 1081 4666 
L 2028 4666 
L 2572 1522 
L 4378 4666 
L 5350 4666 
L 4441 0 
L 3828 0 
L 4622 4091 
L 2791 897 
L 2175 897 
L 1581 4103 
L 788 0 
L 172 0 
L 1081 4666 
z
" transform="scale(0.015625)"/>
       <path id="DejaVuSans-Oblique-4c" d="M 1075 4666 
L 1709 4666 
L 909 525 
L 3181 525 
L 3078 0 
L 172 0 
L 1075 4666 
z
" transform="scale(0.015625)"/>
       <path id="DejaVuSans-Oblique-50" d="M 1081 4666 
L 2541 4666 
Q 3178 4666 3512 4369 
Q 3847 4072 3847 3500 
Q 3847 2731 3353 2303 
Q 2859 1875 1966 1875 
L 1172 1875 
L 806 0 
L 172 0 
L 1081 4666 
z
M 1613 4147 
L 1275 2394 
L 2069 2394 
Q 2606 2394 2893 2669 
Q 3181 2944 3181 3456 
Q 3181 3784 2986 3965 
Q 2791 4147 2438 4147 
L 1613 4147 
z
" transform="scale(0.015625)"/>
      </defs>
      <use xlink:href="#DejaVuSans-Oblique-57" transform="translate(0 0.09375)"/>
      <use xlink:href="#DejaVuSans-Oblique-4d" transform="translate(98.876953 -16.3125) scale(0.7)"/>
      <use xlink:href="#DejaVuSans-Oblique-4c" transform="translate(159.272461 -16.3125) scale(0.7)"/>
      <use xlink:href="#DejaVuSans-Oblique-50" transform="translate(198.271484 -16.3125) scale(0.7)"/>
     </g>
    </g>
   </g>
   <g id="line2d_37">
    <path d="M 159.698995 310.84 
L 159.698995 10.8 
" clip-path="url(#p1ceba9211d)" style="fill: none; stroke-dasharray: 3.7,1.6; stroke-dashoffset: 0; stroke: #000000"/>
   </g>
   <g id="line2d_38">
    <path d="M 177.265022 310.84 
L 177.265022 10.8 
" clip-path="url(#p1ceba9211d)" style="fill: none; stroke-dasharray: 3.7,1.6; stroke-dashoffset: 0; stroke: #000000"/>
   </g>
   <g id="line2d_39">
    <path d="M 237.149204 310.84 
L 237.149204 10.8 
" clip-path="url(#p1ceba9211d)" style="fill: none; stroke-dasharray: 3.7,1.6; stroke-dashoffset: 0; stroke: #000000"/>
   </g>
   <g id="line2d_40">
    <path d="M 335.359264 310.84 
L 335.359264 10.8 
" clip-path="url(#p1ceba9211d)" style="fill: none; stroke-dasharray: 3.7,1.6; stroke-dashoffset: 0; stroke: #000000"/>
   </g>
   <g id="line2d_41">
    <path d="M 340.549226 310.84 
L 340.549226 10.8 
" clip-path="url(#p1ceba9211d)" style="fill: none; stroke-dasharray: 3.7,1.6; stroke-dashoffset: 0; stroke: #000000"/>
   </g>
   <g id="line2d_42">
    <path d="M 378.875103 310.84 
L 378.875103 10.8 
" clip-path="url(#p1ceba9211d)" style="fill: none; stroke-dasharray: 3.7,1.6; stroke-dashoffset: 0; stroke: #000000"/>
   </g>
   <g id="line2d_43">
    <path d="M 414.406385 310.84 
L 414.406385 10.8 
" clip-path="url(#p1ceba9211d)" style="fill: none; stroke-dasharray: 3.7,1.6; stroke-dashoffset: 0; stroke: #000000"/>
   </g>
   <g id="line2d_44">
    <path d="M 429.577045 310.84 
L 429.577045 10.8 
" clip-path="url(#p1ceba9211d)" style="fill: none; stroke-dasharray: 3.7,1.6; stroke-dashoffset: 0; stroke: #000000"/>
   </g>
   <g id="line2d_45">
    <path d="M 436.363919 310.84 
L 436.363919 10.8 
" clip-path="url(#p1ceba9211d)" style="fill: none; stroke-dasharray: 3.7,1.6; stroke-dashoffset: 0; stroke: #000000"/>
   </g>
   <g id="line2d_46">
    <path d="M 470.298289 310.84 
L 470.298289 10.8 
" clip-path="url(#p1ceba9211d)" style="fill: none; stroke-dasharray: 3.7,1.6; stroke-dashoffset: 0; stroke: #000000"/>
   </g>
   <g id="line2d_47">
    <path d="M 493.453506 310.84 
L 493.453506 10.8 
" clip-path="url(#p1ceba9211d)" style="fill: none; stroke-dasharray: 3.7,1.6; stroke-dashoffset: 0; stroke: #000000"/>
   </g>
   <g id="line2d_48">
    <path d="M 530.182472 310.84 
L 530.182472 10.8 
" clip-path="url(#p1ceba9211d)" style="fill: none; stroke-dasharray: 3.7,1.6; stroke-dashoffset: 0; stroke: #000000"/>
   </g>
   <g id="line2d_49">
    <path d="M 559.725335 310.84 
L 559.725335 10.8 
" clip-path="url(#p1ceba9211d)" style="fill: none; stroke-dasharray: 3.7,1.6; stroke-dashoffset: 0; stroke: #000000"/>
   </g>
   <g id="line2d_50">
    <path d="M 572.1014 310.84 
L 572.1014 10.8 
" clip-path="url(#p1ceba9211d)" style="fill: none; stroke-dasharray: 3.7,1.6; stroke-dashoffset: 0; stroke: #000000"/>
   </g>
   <g id="line2d_51">
    <path d="M 624.400252 310.84 
L 624.400252 10.8 
" clip-path="url(#p1ceba9211d)" style="fill: none; stroke-dasharray: 3.7,1.6; stroke-dashoffset: 0; stroke: #000000"/>
   </g>
   <g id="line2d_52">
    <path d="M 642.365507 310.84 
L 642.365507 10.8 
" clip-path="url(#p1ceba9211d)" style="fill: none; stroke-dasharray: 3.7,1.6; stroke-dashoffset: 0; stroke: #000000"/>
   </g>
   <g id="line2d_53">
    <path d="M 659.931534 310.84 
L 659.931534 10.8 
" clip-path="url(#p1ceba9211d)" style="fill: none; stroke-dasharray: 3.7,1.6; stroke-dashoffset: 0; stroke: #000000"/>
   </g>
   <g id="line2d_54">
    <path d="M 667.117636 310.84 
L 667.117636 10.8 
" clip-path="url(#p1ceba9211d)" style="fill: none; stroke-dasharray: 3.7,1.6; stroke-dashoffset: 0; stroke: #000000"/>
   </g>
   <g id="line2d_55">
    <path d="M 685.881347 310.84 
L 685.881347 10.8 
" clip-path="url(#p1ceba9211d)" style="fill: none; stroke-dasharray: 3.7,1.6; stroke-dashoffset: 0; stroke: #000000"/>
   </g>
   <g id="line2d_56">
    <path d="M 697.858183 310.84 
L 697.858183 10.8 
" clip-path="url(#p1ceba9211d)" style="fill: none; stroke-dasharray: 3.7,1.6; stroke-dashoffset: 0; stroke: #000000"/>
   </g>
   <g id="line2d_57">
    <path d="M 708.238108 310.84 
L 708.238108 10.8 
" clip-path="url(#p1ceba9211d)" style="fill: none; stroke-dasharray: 3.7,1.6; stroke-dashoffset: 0; stroke: #000000"/>
   </g>
   <g id="line2d_58">
    <path d="M 716.621894 310.84 
L 716.621894 10.8 
" clip-path="url(#p1ceba9211d)" style="fill: none; stroke-dasharray: 3.7,1.6; stroke-dashoffset: 0; stroke: #000000"/>
   </g>
   <g id="line2d_59">
    <path d="M 760.536961 310.84 
L 760.536961 10.8 
" clip-path="url(#p1ceba9211d)" style="fill: none; stroke-dasharray: 3.7,1.6; stroke-dashoffset: 0; stroke: #000000"/>
   </g>
   <g id="line2d_60">
    <path d="M 887.491428 310.84 
L 887.491428 10.8 
" clip-path="url(#p1ceba9211d)" style="fill: none; stroke-dasharray: 3.7,1.6; stroke-dashoffset: 0; stroke: #000000"/>
   </g>
   <g id="patch_3">
    <path d="M 57.836 310.84 
L 57.836 10.8 
" style="fill: none; stroke: #000000; stroke-width: 0.8; stroke-linejoin: miter; stroke-linecap: square"/>
   </g>
   <g id="patch_4">
    <path d="M 57.836 310.84 
L 1069.2 310.84 
" style="fill: none; stroke: #000000; stroke-width: 0.8; stroke-linejoin: miter; stroke-linecap: square"/>
   </g>
   <g id="legend_1">
    <g id="line2d_61">
     <g>
      <use xlink:href="#m2392869fd6" x="991.475938" y="29.137813" style="stroke: #000000"/>
     </g>
    </g>
    <g id="text_13">
     <!-- Ablated -->
     <g transform="translate(1002.675938 34.037813) scale(0.14 -0.14)">
      <defs>
       <path id="DejaVuSans-41" d="M 2188 4044 
L 1331 1722 
L 3047 1722 
L 2188 4044 
z
M 1831 4666 
L 2547 4666 
L 4325 0 
L 3669 0 
L 3244 1197 
L 1141 1197 
L 716 0 
L 50 0 
L 1831 4666 
z
" transform="scale(0.015625)"/>
       <path id="DejaVuSans-62" d="M 3116 1747 
Q 3116 2381 2855 2742 
Q 2594 3103 2138 3103 
Q 1681 3103 1420 2742 
Q 1159 2381 1159 1747 
Q 1159 1113 1420 752 
Q 1681 391 2138 391 
Q 2594 391 2855 752 
Q 3116 1113 3116 1747 
z
M 1159 2969 
Q 1341 3281 1617 3432 
Q 1894 3584 2278 3584 
Q 2916 3584 3314 3078 
Q 3713 2572 3713 1747 
Q 3713 922 3314 415 
Q 2916 -91 2278 -91 
Q 1894 -91 1617 61 
Q 1341 213 1159 525 
L 1159 0 
L 581 0 
L 581 4863 
L 1159 4863 
L 1159 2969 
z
" transform="scale(0.015625)"/>
       <path id="DejaVuSans-6c" d="M 603 4863 
L 1178 4863 
L 1178 0 
L 603 0 
L 603 4863 
z
" transform="scale(0.015625)"/>
       <path id="DejaVuSans-61" d="M 2194 1759 
Q 1497 1759 1228 1600 
Q 959 1441 959 1056 
Q 959 750 1161 570 
Q 1363 391 1709 391 
Q 2188 391 2477 730 
Q 2766 1069 2766 1631 
L 2766 1759 
L 2194 1759 
z
M 3341 1997 
L 3341 0 
L 2766 0 
L 2766 531 
Q 2569 213 2275 61 
Q 1981 -91 1556 -91 
Q 1019 -91 701 211 
Q 384 513 384 1019 
Q 384 1609 779 1909 
Q 1175 2209 1959 2209 
L 2766 2209 
L 2766 2266 
Q 2766 2663 2505 2880 
Q 2244 3097 1772 3097 
Q 1472 3097 1187 3025 
Q 903 2953 641 2809 
L 641 3341 
Q 956 3463 1253 3523 
Q 1550 3584 1831 3584 
Q 2591 3584 2966 3190 
Q 3341 2797 3341 1997 
z
" transform="scale(0.015625)"/>
       <path id="DejaVuSans-74" d="M 1172 4494 
L 1172 3500 
L 2356 3500 
L 2356 3053 
L 1172 3053 
L 1172 1153 
Q 1172 725 1289 603 
Q 1406 481 1766 481 
L 2356 481 
L 2356 0 
L 1766 0 
Q 1100 0 847 248 
Q 594 497 594 1153 
L 594 3053 
L 172 3053 
L 172 3500 
L 594 3500 
L 594 4494 
L 1172 4494 
z
" transform="scale(0.015625)"/>
       <path id="DejaVuSans-64" d="M 2906 2969 
L 2906 4863 
L 3481 4863 
L 3481 0 
L 2906 0 
L 2906 525 
Q 2725 213 2448 61 
Q 2172 -91 1784 -91 
Q 1150 -91 751 415 
Q 353 922 353 1747 
Q 353 2572 751 3078 
Q 1150 3584 1784 3584 
Q 2172 3584 2448 3432 
Q 2725 3281 2906 2969 
z
M 947 1747 
Q 947 1113 1208 752 
Q 1469 391 1925 391 
Q 2381 391 2643 752 
Q 2906 1113 2906 1747 
Q 2906 2381 2643 2742 
Q 2381 3103 1925 3103 
Q 1469 3103 1208 2742 
Q 947 2381 947 1747 
z
" transform="scale(0.015625)"/>
      </defs>
      <use xlink:href="#DejaVuSans-41"/>
      <use xlink:href="#DejaVuSans-62" x="68.408203"/>
      <use xlink:href="#DejaVuSans-6c" x="131.884766"/>
      <use xlink:href="#DejaVuSans-61" x="159.667969"/>
      <use xlink:href="#DejaVuSans-74" x="220.947266"/>
      <use xlink:href="#DejaVuSans-65" x="260.15625"/>
      <use xlink:href="#DejaVuSans-64" x="321.679688"/>
     </g>
    </g>
   </g>
  </g>
 </g>
 <defs>
  <clipPath id="p1ceba9211d">
   <rect x="57.836" y="10.8" width="1011.364" height="300.04"/>
  </clipPath>
 </defs>
</svg>
